<?xml version="1.0" encoding="utf-8"?>
<!-- Generator: Adobe Illustrator 25.4.1, SVG Export Plug-In . SVG Version: 6.00 Build 0)  -->
<svg version="1.1" id="Ebene_1" xmlns="http://www.w3.org/2000/svg" xmlns:xlink="http://www.w3.org/1999/xlink" x="0px" y="0px"
	 viewBox="0 0 1000 700" style="enable-background:new 0 0 1000 700;" xml:space="preserve">
<style type="text/css">
	.st0{fill:#B2C3AF;}
	.st1{clip-path:url(#XMLID_00000092434549470410868890000005960882511232699812_);}
	.st2{fill:#FFFFFF;}
	.st3{fill:#141414;}
	.st4{fill:#DAA86F;}
	.st5{fill:#99B06A;}
	.st6{fill:#EE7242;}
	.st7{fill:#BE592B;}
	.st8{fill:#020203;}
	.st9{fill:#D23347;}
	.st10{fill:#F8CF50;}
	.st11{opacity:0.5;}
	.st12{fill:#BD941E;}
	.st13{fill:#5A8433;}
	.st14{fill:#E7E891;}
	.st15{fill:#BA7C2A;}
	.st16{fill:#AC7125;}
	.st17{fill:#C69461;}
</style>
<rect class="st0" width="1000" height="700"/>
<g>
	<defs>
		<rect id="XMLID_118_" x="203.9" y="202.44" width="796.1" height="497.56"/>
	</defs>
	<use xlink:href="#XMLID_118_"  style="overflow:visible;fill:#B2C3AF;"/>
	<clipPath id="XMLID_00000177486047517198167070000015974545394561059972_">
		<use xlink:href="#XMLID_118_"  style="overflow:visible;"/>
	</clipPath>
	<g style="clip-path:url(#XMLID_00000177486047517198167070000015974545394561059972_);">
		<g>
			<path class="st2" d="M712.29,483.97c0,0-23.36,86.93,13.36,105.41c1.46,0.74,2.98,1.11,4.5,1.52c1.54,0.41,4.62,3.44,4.6,21.13
				c-0.03,23.58,1.26,38.88,1.26,38.88l11.93-0.24l-1.62-49.77c-0.18-5.46,1.87-10.58,5.29-12.48c0.21-0.12,0.43-0.23,0.66-0.33
				c5.49-2.47,15.37-16.82,12.93-42.71c-2.43-25.89-6.35-72.97-12.36-62.24c-7.64,13.64,3.39,67.73-4.6,66.71
				c0,0-7.04,3.68-7.09-22.26c-0.05-25.94-2.39-46.45-6.22-44.68c-6.66,3.08-6.57,54.96-6.68,63.81
				c-0.06,4.99-11.54,12.03-9.96-12.77C719.87,509.17,720.12,467.9,712.29,483.97z"/>
		</g>
		<path class="st3" d="M752.51,656.8l-0.3-13.1c0,0-23.9-1.68-23.06,0.49c0.85,2.17-2.6,130.02-2.6,130.02s-3.35,27.38,18.02,22.55
			C765.94,791.95,752.51,656.8,752.51,656.8z"/>
	</g>
	<g style="clip-path:url(#XMLID_00000177486047517198167070000015974545394561059972_);">
		<g>
			<g>
				<path class="st2" d="M420.27,488.21c0,0-23.36,86.93,13.36,105.41c1.46,0.74,2.98,1.11,4.5,1.52c1.54,0.41,4.62,3.44,4.6,21.13
					c-0.03,23.58,1.26,38.88,1.26,38.88l11.93-0.24l-1.62-49.77c-0.18-5.46,1.87-10.58,5.29-12.48c0.21-0.12,0.43-0.23,0.66-0.33
					c5.49-2.47,15.37-16.82,12.94-42.71c-2.43-25.89-6.35-72.97-12.36-62.24c-7.64,13.64,3.39,67.73-4.6,66.71
					c0,0-7.04,3.68-7.09-22.26c-0.05-25.94-2.39-46.45-6.22-44.68c-6.66,3.08-6.57,54.96-6.68,63.81
					c-0.06,4.99-11.54,12.03-9.96-12.77C427.85,513.4,428.1,472.13,420.27,488.21z"/>
			</g>
			<path class="st3" d="M460.49,661.04l-0.3-13.1c0,0-23.9-1.68-23.06,0.49c0.85,2.17-2.6,130.02-2.6,130.02
				s-3.35,27.37,18.02,22.55C473.92,796.19,460.49,661.04,460.49,661.04z"/>
		</g>
		<g>
			<g>
				<path class="st2" d="M570.9,550.66c0,0-23.36,86.93,13.36,105.41c1.46,0.74,2.98,1.11,4.5,1.52c1.54,0.41,4.62,3.44,4.6,21.13
					c-0.03,23.58,1.26,38.88,1.26,38.88l11.93-0.24l-1.62-49.77c-0.18-5.46,1.87-10.58,5.29-12.48c0.21-0.12,0.43-0.23,0.66-0.33
					c5.49-2.47,15.37-16.82,12.93-42.71c-2.43-25.89-6.35-72.97-12.36-62.24c-7.64,13.64,3.39,67.73-4.6,66.71
					c0,0-7.04,3.68-7.09-22.26c-0.05-25.94-2.39-46.45-6.22-44.68c-6.66,3.08-6.57,54.96-6.68,63.81
					c-0.06,4.99-11.54,12.03-9.96-12.77C578.48,575.85,578.73,534.58,570.9,550.66z"/>
			</g>
			<path class="st3" d="M611.11,723.49l-0.3-13.1c0,0-23.9-1.68-23.06,0.49c0.85,2.17-2.6,130.02-2.6,130.02
				s-3.35,27.38,18.02,22.56C624.54,858.63,611.11,723.49,611.11,723.49z"/>
		</g>
		<g>
			<g>
				<path class="st2" d="M867.69,572.52c0,0-23.36,86.93,13.36,105.41c1.46,0.74,2.98,1.11,4.5,1.52c1.54,0.41,4.62,3.44,4.6,21.13
					c-0.03,23.58,1.26,38.88,1.26,38.88l11.93-0.24l-1.62-49.77c-0.18-5.46,1.87-10.58,5.29-12.48c0.21-0.12,0.43-0.23,0.66-0.33
					c5.49-2.47,15.37-16.82,12.93-42.71c-2.43-25.89-6.35-72.97-12.36-62.24c-7.64,13.64,3.39,67.73-4.6,66.71
					c0,0-7.04,3.68-7.09-22.26c-0.05-25.94-2.39-46.45-6.22-44.68c-6.66,3.08-6.57,54.96-6.68,63.81
					c-0.06,4.99-11.54,12.03-9.96-12.77C875.27,597.71,875.52,556.44,867.69,572.52z"/>
			</g>
			<path class="st3" d="M907.91,745.35l-0.3-13.1c0,0-23.9-1.68-23.06,0.49c0.84,2.17-2.6,130.02-2.6,130.02
				s-3.35,27.38,18.02,22.55C921.34,880.49,907.91,745.35,907.91,745.35z"/>
		</g>
		<g>
			<g>
				<path class="st2" d="M309.15,565.34c0,0-23.36,86.93,13.36,105.41c1.46,0.74,2.98,1.11,4.5,1.52c1.54,0.41,4.62,3.44,4.6,21.13
					c-0.03,23.58,1.26,38.88,1.26,38.88l11.93-0.24l-1.62-49.77c-0.18-5.46,1.87-10.58,5.29-12.48c0.21-0.12,0.43-0.23,0.66-0.33
					c5.49-2.47,15.37-16.82,12.93-42.71c-2.43-25.89-6.35-72.97-12.36-62.24c-7.64,13.64,3.39,67.73-4.6,66.71
					c0,0-7.04,3.68-7.09-22.26c-0.05-25.94-2.39-46.45-6.22-44.68c-6.66,3.08-6.57,54.96-6.68,63.8
					c-0.06,4.99-11.54,12.03-9.96-12.77C316.73,590.53,316.98,549.26,309.15,565.34z"/>
			</g>
			<path class="st3" d="M349.36,738.17l-0.3-13.1c0,0-23.9-1.68-23.06,0.49c0.85,2.17-2.6,130.02-2.6,130.02
				s-3.35,27.38,18.02,22.55C362.79,873.31,349.36,738.17,349.36,738.17z"/>
		</g>
	</g>
	<g style="clip-path:url(#XMLID_00000177486047517198167070000015974545394561059972_);">
		<g>
			<path class="st4" d="M586.29,565.4c0,0,11.89,8.98,11.06,16.03c-0.83,7.05-23.98,16.41-26.44,26.83
				c-0.68,2.86-3.65,1.63-2.8-0.65c0.23-0.62,0.45-1.89,2.76-5.65c5.22-8.51,17.59-19.98,13.66-20.76
				C569.05,578.14,576.99,564.48,586.29,565.4z"/>
			<g>
				<path class="st4" d="M622.95,558.01c0,0,11.89,8.98,11.06,16.03c-0.83,7.05-23.98,16.41-26.44,26.83
					c-0.68,2.86-3.65,1.63-2.81-0.65c0.23-0.62,0.45-1.89,2.76-5.65c5.22-8.51,17.59-19.98,13.66-20.76
					C605.71,570.75,613.65,557.09,622.95,558.01z"/>
			</g>
		</g>
		<g>
			<g>
				<path class="st5" d="M619.13,417.13c-3.33,2.1-6.33,4.94-8.9,7.89c-5.07,5.84-8.56,13.2-8.22,21.07
					c0.26,5.94,2.65,11.47,5.76,16.45c0.08,0.13,0.81,1.36,1.01,1.24c0.19-0.12-0.63-1.4-0.67-1.45
					c-4.82-7.73-5.79-17.11-2.11-25.49c2.52-5.75,6.76-10.7,11.59-14.65c1.02-0.84,2.08-1.67,3.2-2.37
					C621.06,419.66,619.38,416.98,619.13,417.13L619.13,417.13z"/>
			</g>
			<g>
				<g>
					<path class="st6" d="M569.65,456.64c-3.12,3.2-7.71,4.49-12,3.23c-11.32-3.31-32.85-4.16-42.55,31.68
						c-10.02,37.04,11.37,53.51,23.02,59.53c3.51,1.82,5.95,5.24,6.39,9.17c0.45,4,2.62,8.83,9.87,11.03
						c8.85,2.69,17.83,1.85,23.45-1.37c3.37-1.93,7.47-1.95,10.96-0.25c3.03,1.47,7.75,2.52,15.12,2.2
						c8.87-0.38,13.9-1.91,16.76-3.52c2.98-1.68,6.54-1.88,9.76-0.7c4.53,1.67,11.23,1.96,18.7-4.92c1.55-1.43,3.42-2.44,5.47-2.92
						c9.39-2.2,36.06-10.99,34.61-39.52c-1.76-34.59-11.43-65.37-40.45-67.71c0,0-3.64-0.22-6.52,0.89c-3.2,1.24-6.77,1-9.83-0.56
						c-4.05-2.06-9.58-3.34-15.25,0.04c-3.38,2.02-7.57,2.15-11.14,0.48C597.3,449.35,581.38,444.61,569.65,456.64z"/>
					<g>
						<path class="st6" d="M568.71,457.04c-1.19,1.18-2.5,2.11-4.14,2.51c-1.43,0.35-2.94,0.41-4.4,0.2
							c-1.32-0.19-2.6-0.65-3.9-0.95c-2.18-0.5-4.41-0.8-6.65-0.88c-5.51-0.18-10.85,1.23-15.67,3.88
							c-6.42,3.54-11.09,9.33-14.4,15.78c-2.34,4.57-4.07,9.45-5.4,14.4c-1.44,5.33-2.4,10.82-2.57,16.35
							c-0.26,8.2,1.31,16.45,5.21,23.71c3.02,5.64,7.33,10.5,12.39,14.4c2.04,1.57,4.2,2.99,6.45,4.24c1.51,0.84,3.03,1.58,4.3,2.78
							c1.78,1.68,3.02,3.89,3.49,6.29c0.35,1.79,0.52,3.47,1.32,5.14c0.86,1.8,2.19,3.32,3.8,4.49c2.21,1.59,4.84,2.42,7.47,3.03
							c3.05,0.7,6.19,1.02,9.32,0.91c2.6-0.09,5.2-0.49,7.69-1.25c1.08-0.33,2.14-0.74,3.17-1.2c1.36-0.61,2.59-1.44,4.07-1.76
							c2.86-0.61,5.49,0.08,8.1,1.23c1.65,0.73,3.41,1.19,5.19,1.5c5.53,0.96,11.4,0.63,16.92-0.22c3.55-0.55,7.07-1.47,10.25-3.16
							c2.83-1.5,5.99-1.34,8.95-0.32c1.69,0.58,3.44,0.93,5.22,0.94c4.45,0.03,8.81-1.94,12.37-4.49c1.25-0.89,2.32-1.97,3.53-2.91
							c1.09-0.85,2.22-1.27,3.54-1.59c0.99-0.24,1.98-0.51,2.95-0.8c2.59-0.76,5.13-1.69,7.6-2.77c6.02-2.62,11.77-6.13,16.29-10.95
							c5.34-5.69,8.41-12.99,8.95-20.76c0.35-5.04-0.22-10.21-0.73-15.22c-0.5-4.89-1.2-9.75-2.19-14.56
							c-1.78-8.64-4.46-17.28-9.08-24.84c-4.03-6.62-9.68-12.23-16.87-15.32c-3.63-1.56-7.64-2.57-11.59-2.8
							c-1.67-0.1-3.41,0.06-5.04,0.43c-1.46,0.33-2.8,0.98-4.3,1.16c-1.49,0.19-3.01,0.08-4.46-0.3c-1.37-0.35-2.56-1.03-3.84-1.57
							c-1.16-0.5-2.38-0.89-3.62-1.13c-2.59-0.52-5.23-0.33-7.73,0.51c-1.21,0.41-2.38,0.95-3.5,1.56
							c-1.57,0.87-3.13,1.33-4.94,1.35c-2.56,0.03-4.7-0.94-6.99-1.92c-7.68-3.28-16.43-5-24.58-2.44
							C576.15,451.17,572.03,453.68,568.71,457.04c-0.1,0.1,0.68-0.15,0.74-0.17c0.37-0.16,0.84-0.34,1.14-0.64
							c1.96-1.98,4.2-3.77,6.76-4.91c2.23-0.99,4.68-1.53,7.1-1.76c4.23-0.4,8.52,0.18,12.6,1.31c1.9,0.52,3.75,1.17,5.57,1.92
							c1.91,0.78,3.72,1.77,5.79,2.1c2.52,0.4,5.02-0.07,7.35-1.08c1.36-0.6,2.59-1.48,4.02-1.92c1.47-0.46,3.03-0.62,4.56-0.55
							c2.68,0.13,5.06,1.05,7.46,2.18c2.47,1.15,5.24,1.49,7.91,0.91c1.25-0.27,2.41-0.81,3.66-1.07c1.15-0.24,2.34-0.33,3.52-0.35
							c1.65-0.02,3.31,0.24,4.92,0.53c7.57,1.37,14.34,5.21,19.49,10.91c5.48,6.07,9,13.69,11.43,21.43
							c2.82,9,4.27,18.41,5.07,27.79c0.4,4.74,0.83,9.54,0.22,14.28c-0.52,4-1.71,7.9-3.63,11.46c-3.26,6.05-8.45,10.87-14.36,14.29
							c-4.31,2.49-9.04,4.26-13.86,5.46c-1.98,0.49-3.84,1.16-5.59,2.21c-2.53,1.52-4.45,3.82-7.09,5.22
							c-3.65,1.93-8.04,1.99-11.89,0.66c-2.43-0.84-4.91-1.1-7.43-0.45c-1.87,0.48-3.44,1.52-5.21,2.22
							c-4.29,1.72-9.15,2.13-13.72,2.35c-4.72,0.22-9.75,0.11-14.22-1.62c-2.24-0.87-4.2-1.81-6.67-1.8
							c-2.52,0.01-4.85,0.89-7.04,2.08c-4.89,2.66-11.18,2.79-16.56,2c-4.94-0.73-10.38-2.25-13.3-6.64
							c-0.96-1.45-1.57-3.11-1.86-4.82c-0.38-2.24-0.83-4.26-2.16-6.16c-1.99-2.84-5.07-4.06-7.91-5.81
							c-11.06-6.82-19.04-17.62-21.31-30.53c-1.75-9.95-0.26-20.21,2.66-29.79c2.51-8.23,6.25-16.54,12.56-22.57
							c4.15-3.97,9.15-6.28,14.88-6.76c2.32-0.19,4.66-0.11,6.97,0.21c2.31,0.31,4.49,1.08,6.77,1.48
							c4.49,0.78,9.38-1.24,12.55-4.41c0.1-0.1-0.68,0.15-0.74,0.17C569.47,456.57,569.01,456.75,568.71,457.04z"/>
					</g>
				</g>
				<g>
					<g>
						<path class="st7" d="M550.59,475.63c-3.63,3.76-6.44,8.56-8.66,13.24c-5.14,10.82-6.91,22.98-4.95,34.8
							c1.57,9.48,5.42,18.41,10.46,26.54c0.27,0.43,1.44-0.01,1.13-0.52c-8.12-13.09-12.78-28.34-10.59-43.79
							c1.31-9.25,4.9-18.17,10.29-25.79c1.02-1.44,2.1-2.89,3.34-4.17C552.13,475.4,550.94,475.27,550.59,475.63L550.59,475.63z"/>
					</g>
					<g>
						<path class="st7" d="M582.01,539.17c-0.25,2.87-0.3,5.77-0.18,8.65c0.09,2.13,0.28,4.29,0.81,6.36
							c0.38,1.48,0.97,3.21,2.33,4.08c0.24,0.15,1.07-0.26,0.97-0.32c-1.39-0.88-1.95-2.69-2.32-4.2c-0.51-2.09-0.69-4.25-0.77-6.39
							c-0.11-2.8-0.06-5.63,0.19-8.43C583.04,538.81,582.03,538.89,582.01,539.17L582.01,539.17z"/>
					</g>
					<g>
						<path class="st7" d="M641.25,464.91c1.34,1,2.59,2.22,3.8,3.44c3.09,3.13,5.82,6.62,8.17,10.35
							c3.37,5.35,5.92,11.2,7.53,17.32c2.06,7.83,2.55,16,1.71,24.05c-1.13,10.72-4.54,21.09-9.18,30.77
							c-0.69,1.44-1.41,2.87-2.15,4.29c-0.3,0.57,0.93,0.51,1.16,0.09c5.2-9.92,9.24-20.56,10.95-31.67
							c1.28-8.33,1.19-16.88-0.59-25.12c-1.39-6.41-3.79-12.57-7.07-18.24c-2.38-4.11-5.23-7.96-8.48-11.41
							c-1.01-1.07-2.06-2.11-3.16-3.09c-0.49-0.44-1.04-1.05-1.63-1.36c-0.03-0.01-0.05-0.04-0.07-0.05
							C641.83,463.97,640.73,464.52,641.25,464.91L641.25,464.91z"/>
					</g>
					<g>
						<path class="st7" d="M623.21,538.25c0.24,2.72,0.29,5.48,0.2,8.21c-0.08,2.13-0.24,4.29-0.72,6.38
							c-0.35,1.5-0.89,3.45-2.28,4.33c-0.41,0.26,0.6,0.13,0.77,0.02c1.36-0.86,1.97-2.46,2.37-3.95c0.56-2.07,0.76-4.24,0.86-6.37
							c0.14-2.95,0.09-5.93-0.17-8.87C624.22,537.83,623.18,538,623.21,538.25L623.21,538.25z"/>
					</g>
				</g>
			</g>
		</g>
		<g>
			<g>
				<path class="st8" d="M606.45,519.51c0,0,1.18-0.88,1.79,1.23c0.61,2.11,1.24,7.48-0.15,7.52c-1.38,0.04-1.85-4.47-1.85-4.47
					S605.9,519.9,606.45,519.51z"/>
				<g>
					<path class="st2" d="M617.65,513.2c-1.05,3.41-3.74,8.22-8.01,6.8c-0.81-0.27-0.59-1.15,0.23-0.87c3.4,1.13,5.62-3.7,6.42-6.29
						C616.47,512.25,617.83,512.62,617.65,513.2L617.65,513.2z"/>
				</g>
				<g>
					<path class="st2" d="M615.86,509.02c-0.32,4.16-1.88,10.57-6.92,10.99c-0.69,0.06-1.37-0.95-0.46-1.03
						c4.42-0.37,5.74-6.71,6-10.05C614.54,508.2,615.91,508.39,615.86,509.02L615.86,509.02z"/>
				</g>
				<g>
					<path class="st2" d="M612.62,507.21c0.65,4.5,0.42,11.86-5.11,13.02c-0.52,0.11-1.61-0.68-0.8-0.84
						c5.09-1.06,5.14-8.22,4.55-12.3C611.17,506.46,612.55,506.66,612.62,507.21L612.62,507.21z"/>
				</g>
				<path class="st8" d="M585.3,518.48c0,0,1.18-0.88,1.79,1.23c0.61,2.11,1.24,7.48-0.15,7.52c-1.38,0.04-1.85-4.47-1.85-4.47
					S584.75,518.88,585.3,518.48z"/>
				<g>
					<path class="st2" d="M596.5,512.18c-1.05,3.41-3.74,8.22-8.01,6.8c-0.81-0.27-0.59-1.15,0.23-0.87c3.4,1.13,5.62-3.7,6.42-6.29
						C595.32,511.22,596.68,511.59,596.5,512.18L596.5,512.18z"/>
				</g>
				<g>
					<path class="st2" d="M594.71,508c-0.32,4.16-1.88,10.57-6.92,10.99c-0.69,0.06-1.37-0.95-0.46-1.03
						c4.42-0.37,5.74-6.71,6-10.05C593.39,507.17,594.76,507.36,594.71,508L594.71,508z"/>
				</g>
				<g>
					<path class="st2" d="M591.47,506.19c0.65,4.5,0.42,11.86-5.11,13.02c-0.52,0.11-1.61-0.68-0.8-0.84
						c5.09-1.06,5.14-8.22,4.55-12.3C590.01,505.43,591.39,505.64,591.47,506.19L591.47,506.19z"/>
				</g>
			</g>
			<g>
				<g>
					<path class="st2" d="M636.32,550.48c0.65-0.84,1.33-1.67,2.04-2.47c0.55-0.63,1.12-1.25,1.74-1.81
						c0.35-0.31,0.95-1.04,1.08-0.28c0.11,0.67-0.27,1.52-0.49,2.14c-0.32,0.88-0.69,1.74-1.09,2.59c-0.52,1.12-1.07,2.23-1.67,3.32
						c-0.03,0.06,0.52,0.03,0.6-0.11c0.54-0.99,4.46-8.02,2.94-8.57c-1.01-0.37-2.52,1.53-3.04,2.09c-0.96,1.03-1.86,2.11-2.72,3.23
						C635.7,550.62,636.21,550.62,636.32,550.48L636.32,550.48z"/>
				</g>
				<g>
					<path class="st2" d="M569.8,556.02c0.38-0.86,3.16-7.1,1.64-7.19c-1.33-0.07-2.7,2.05-3.38,2.91c-1.03,1.3-1.98,2.66-2.88,4.05
						c-0.03,0.04,0.51,0.03,0.6-0.11c0.56-0.87,4.75-7.13,5.48-6.51c0.29,0.25-0.03,1.29-0.1,1.56c-0.19,0.79-0.46,1.57-0.74,2.34
						c-0.37,1.03-0.78,2.06-1.22,3.06C569.17,556.21,569.74,556.17,569.8,556.02L569.8,556.02z"/>
				</g>
			</g>
		</g>
	</g>
	<g style="clip-path:url(#XMLID_00000177486047517198167070000015974545394561059972_);">
		<g>
			<path class="st4" d="M335.02,594.26c0,0,19.44,7.88,22.63,13.24c3.19,5.36-7.95,24.26-4.1,32.84c1.06,2.36-1.67,3.09-2.3,1.05
				c-0.17-0.56-0.69-1.56-1.09-5.42c-0.91-8.72,1.95-21.87-1.57-21.78C331.65,614.61,328.04,598.59,335.02,594.26z"/>
			<path class="st4" d="M319.94,594.85c0,0-19.44,7.88-22.63,13.24c-3.19,5.36,7.95,24.26,4.1,32.85c-1.06,2.36,1.67,3.09,2.3,1.05
				c0.17-0.56,0.69-1.56,1.09-5.42c0.9-8.72-1.95-21.87,1.57-21.78C323.3,615.2,326.92,599.18,319.94,594.85z"/>
		</g>
		<g>
			<g>
				<path class="st9" d="M317.9,477.78c-3.41,0.6-6.86,1.02-10.31,1.29c-8.03,0.61-25.43,4.2-28.85,23.71
					c-4.49,25.54-34.89,62.85,36.15,103.09c0,0,11.79,5.98,13.7,18.77c0,0,0.46-17.24,11.46-17.64c11-0.4,84.61-18.1,58.36-73.16
					c0,0-5.94-17.1-3.73-23.56C396.83,503.99,392.14,464.67,317.9,477.78z"/>
				<g>
					<path class="st9" d="M316.63,476.49c-7.04,1.23-14.29,1.08-21.08,3.54c-6.44,2.33-12.08,6.52-15.43,12.58
						c-2.9,5.26-3.38,11.31-5.07,16.94c-1.36,4.54-2.95,9.01-4.34,13.54c-3.1,10.1-5.25,20.68-3.41,31.24
						c2.49,14.32,11.59,26.14,22.38,35.45c7.61,6.57,16.06,12.19,24.83,17.08c0.21,0.12,0.42,0.23,0.62,0.35
						c0.13,0.08,0.26,0.16,0.39,0.24c-0.66-0.39,0.15,0.1,0.31,0.21c0.43,0.29,0.86,0.59,1.27,0.9c0.26,0.2,0.52,0.4,0.78,0.6
						c0.14,0.11,0.27,0.22,0.41,0.33c0.09,0.08,0.18,0.15,0.28,0.23c-0.14-0.12-0.12-0.1,0.05,0.05c2.59,2.29,4.82,5.01,6.28,8.16
						c0.89,1.91,1.53,3.95,1.85,6.03c0.14,0.91,1.01,1.52,1.83,1.82c0.53,0.19,1.83,0.41,1.85-0.49c0.09-3.03,0.69-6.15,1.75-8.99
						c0.82-2.19,1.97-4.4,3.77-5.95c1.61-1.38,3.39-1.92,5.47-2.06c5.55-0.37,11.11-1.93,16.39-3.57
						c8.28-2.57,16.37-6.01,23.75-10.57c7.72-4.76,14.88-10.97,19.41-18.92c5.03-8.81,5.93-19,3.64-28.79
						c-0.7-2.98-1.67-5.9-2.84-8.74c-0.71-1.72-1.53-3.34-2.09-5.11c-1.64-5.12-3.12-10.45-3.56-15.82c-0.16-2-0.12-3.93,0.42-5.86
						c0.18-0.63,0.28-1.27,0.32-1.92c0.13-1.81-0.08-3.62-0.42-5.39c-1.03-5.34-3.7-10.24-7.27-14.29
						c-5.4-6.12-12.94-10.12-20.69-12.41c-12.61-3.72-26.09-3.66-39.06-2.25C325.13,475.13,320.87,475.75,316.63,476.49
						c-0.92,0.16-0.46,1.2-0.05,1.62c0.64,0.66,1.67,1.12,2.6,0.96c14.07-2.47,28.84-3.88,43.01-1.3c2.54,0.46,4.94,1.03,7.14,1.73
						c1.1,0.34,2.19,0.72,3.27,1.14c0.5,0.19,1,0.39,1.49,0.6c0.13,0.05,0.71,0.31,0.51,0.22c-0.3-0.13,0.19,0.09,0.2,0.09
						c0.15,0.07,0.29,0.14,0.44,0.2c0.92,0.43,1.83,0.9,2.71,1.39c0.41,0.23,0.82,0.47,1.23,0.72c0.08,0.05,0.17,0.1,0.25,0.15
						c0.42,0.25-0.28-0.18-0.02-0.01c0.22,0.14,0.44,0.29,0.67,0.43c0.74,0.49,1.45,1,2.15,1.54c0.35,0.27,0.7,0.55,1.04,0.84
						c0.07,0.06,0.13,0.11,0.2,0.17c0.34,0.28-0.24-0.21-0.03-0.02c0.18,0.16,0.36,0.31,0.53,0.47c0.59,0.53,1.16,1.09,1.7,1.66
						c0.28,0.29,0.55,0.59,0.82,0.89c0.1,0.12,0.21,0.24,0.31,0.36c0.08,0.09,0.15,0.18,0.23,0.27c-0.17-0.2-0.12-0.15,0.02,0.02
						c0.9,1.13,1.74,2.3,2.48,3.54c0.16,0.27,0.32,0.54,0.47,0.82c0.08,0.15,0.16,0.3,0.25,0.45c0.04,0.07,0.13,0.25-0.03-0.07
						c0.05,0.09,0.09,0.18,0.14,0.27c0.29,0.59,0.57,1.18,0.83,1.78c0.46,1.09,0.85,2.2,1.17,3.34c0.14,0.51,0.27,1.02,0.38,1.53
						c0.04,0.19,0.16,0.79,0.1,0.49c0.04,0.25,0.09,0.5,0.12,0.75c0.13,0.87,0.22,1.76,0.24,2.64c0.02,0.7,0,1.41-0.09,2.11
						c-0.03,0.27-0.09,0.54-0.14,0.82c-0.03,0.15,0.09-0.28-0.02,0.07c-0.12,0.37-0.23,0.74-0.31,1.11
						c-0.57,2.52-0.28,5.23,0.1,7.77c0.44,3,1.12,5.96,1.91,8.88c0.53,1.98,1.12,3.94,1.76,5.89c0.69,2.07,1.76,4.02,2.53,6.06
						c3.63,9.66,4.62,20.35,0.65,30.07c-3.42,8.36-9.82,15.03-17.1,20.2c-7.08,5.03-15.01,8.8-23.19,11.67
						c-5.87,2.06-11.98,3.82-18.16,4.66c-0.24,0.03-0.48,0.06-0.73,0.09c-0.34,0.04,0.26-0.03,0.04,0
						c-0.13,0.01-0.25,0.03-0.38,0.04c-0.45,0.04-0.9,0.05-1.35,0.09c-2.61,0.2-4.97,1.25-6.77,3.17
						c-3.12,3.31-4.38,8.04-4.96,12.45c-0.12,0.88-0.21,1.78-0.24,2.67c1.23,0.44,2.45,0.88,3.68,1.32
						c-1.17-7.51-5.71-13.88-11.79-18.3c-1.58-1.15-3.29-2.08-4.98-3.06c-4.85-2.81-9.58-5.83-14.1-9.13
						c-12.06-8.79-23.41-20.11-27.58-34.85c-2.92-10.33-1.64-21.11,1.2-31.3c1.29-4.64,2.87-9.19,4.34-13.77
						c0.68-2.12,1.34-4.26,1.92-6.41c0.67-2.52,1.03-5.11,1.7-7.63c1.92-7.21,6.52-13.08,13.12-16.56c2.59-1.36,5.37-2.32,8.22-2.98
						c2.85-0.66,5.13-0.83,7.93-1.09c2.94-0.27,5.86-0.66,8.77-1.17c0.92-0.16,0.46-1.2,0.05-1.62
						C318.59,476.79,317.56,476.33,316.63,476.49z"/>
				</g>
			</g>
			<g>
				<g>
					<path class="st5" d="M318.73,449.51c0,0-2.55-0.7-2.47,1.72c0.09,2.42,1.89,2.29,3.54,7.31c1.65,5.02,1.3,5.81,5.53,6.61
						c4.24,0.79,4.48,0.23,5.55,1.82c1.07,1.59,3.19,2.83,4.39,1.19c1.2-1.64-3.75-5.34-3.33-8.02c0.42-2.67-2.58-7.76-5.25-8.27
						C324.04,451.36,321.17,451.51,318.73,449.51z"/>
					<g>
						<path class="st5" d="M318.87,449.09c-1.24-0.33-2.73,0.04-3.04,1.44c-0.4,1.77,0.82,3.02,1.72,4.36c1.54,2.3,2,4.99,2.99,7.52
							c0.6,1.53,1.56,2.38,3.14,2.83c1.31,0.38,2.68,0.56,4.03,0.74c0.66,0.09,1.54,0.07,2.11,0.48c0.27,0.19,0.45,0.49,0.64,0.75
							c0.41,0.56,0.86,1.07,1.43,1.47c0.82,0.58,1.91,0.96,2.88,0.53c2.1-0.95,0.89-2.98-0.03-4.31c-0.68-0.98-1.45-1.94-1.95-3.03
							c-0.45-0.99-0.21-1.85-0.34-2.88c-0.32-2.54-1.94-5.32-4.04-6.8c-1.14-0.8-2.47-0.88-3.82-1.06c-1.98-0.27-3.88-0.66-5.5-1.91
							c-0.44-0.35-1.22,0.22-0.71,0.62c2.16,1.69,4.67,1.93,7.3,2.33c1.18,0.18,2.02,0.52,2.89,1.38c0.82,0.81,1.48,1.79,1.99,2.81
							c0.48,0.96,0.89,2.06,0.93,3.15c0.02,0.83-0.1,1.51,0.21,2.31c0.69,1.79,2.13,3.13,2.98,4.82c0.46,0.93,0.21,2.11-1.15,1.85
							c-1.2-0.23-1.84-1.33-2.55-2.19c-0.88-1.05-2.21-1.04-3.47-1.22c-1.58-0.22-4.07-0.31-5.25-1.58
							c-1.16-1.26-1.44-3.48-1.96-5.05c-0.43-1.3-0.97-2.57-1.7-3.72c-0.43-0.68-0.99-1.29-1.4-1.99c-0.39-0.67-0.75-1.99-0.09-2.6
							c0.38-0.34,1.03-0.3,1.49-0.18C319.19,450.09,319.5,449.26,318.87,449.09z"/>
					</g>
				</g>
				<g>
					<path class="st5" d="M335.79,434.72c0,0-2.3-0.29-2.26,2.18c0.03,2.47,2.18,4.49,1.82,7.02c-0.36,2.53-1.93,2.83-1.45,5.1
						c0.49,2.26,1.97,2.49,2.62,6.12c0.66,3.63,0.3,6.12,2.3,7.15c1.99,1.04,2.64-2.68,3.18-3.31c0.54-0.63,3.81-3.35,2.95-6.28
						c-0.86-2.93-3.4-7.3-2.43-8.96c0.96-1.66,3.23-3.88,2.38-5.84c-0.85-1.96-4.63-5.81-4.17-7.8c0.46-1.99-2.67-2.21-2.77-0.91
						C337.84,430.49,338.64,434.19,335.79,434.72z"/>
					<g>
						<path class="st5" d="M335.59,434.32c-2.64-0.3-2.65,2.59-1.99,4.39c0.72,1.98,1.88,3.71,1.15,5.88
							c-0.44,1.3-1.44,2.28-1.28,3.74c0.13,1.21,0.74,2.18,1.38,3.18c1.08,1.67,1.39,3.54,1.62,5.49c0.17,1.4,0.23,2.98,0.97,4.23
							c0.46,0.78,1.47,1.8,2.48,1.63c1.03-0.17,1.51-1.46,1.85-2.29c0.16-0.4,0.29-0.86,0.54-1.21c0.29-0.4,0.72-0.73,1.05-1.1
							c0.99-1.09,1.93-2.41,2.06-3.92c0.13-1.5-0.67-3.02-1.23-4.37c-0.62-1.52-1.57-3.31-1.55-4.99c0.01-0.78,0.47-1.33,0.91-1.95
							c0.51-0.73,1.05-1.46,1.44-2.26c1.36-2.86-1.53-5.28-2.94-7.52c-0.45-0.71-0.99-1.55-1.02-2.41
							c-0.03-0.59,0.17-1.05-0.12-1.62c-0.45-0.9-1.59-1.48-2.57-1.16c-1.08,0.35-0.76,1.56-0.75,2.45
							c0.02,1.62-0.25,3.39-2.09,3.81c-0.31,0.07,0.24,0.88,0.53,0.82c2.42-0.55,2.28-3.08,2.25-5.06c-0.01-0.42-0.04-0.8,0.33-1.07
							c0.35-0.25,1.11-0.31,1.48-0.06c0.5,0.35,0.17,1.02,0.23,1.54c0.05,0.48,0.24,0.95,0.44,1.39c0.55,1.2,1.35,2.28,2.11,3.35
							c0.78,1.09,2.06,2.42,1.77,3.86c-0.31,1.53-1.5,2.73-2.31,4.02c-0.59,0.94-0.43,1.93-0.15,2.97c0.4,1.48,1.04,2.88,1.61,4.3
							c0.63,1.56,1.24,3.02,0.56,4.68c-0.5,1.22-1.39,2.21-2.29,3.13c-0.54,0.55-0.76,1.1-1.05,1.82c-0.33,0.8-0.93,2.31-2.05,2.04
							c-1.57-0.38-1.58-2.81-1.73-4.05c-0.19-1.61-0.37-3.26-0.98-4.77c-0.41-1.01-1.09-1.84-1.59-2.79
							c-0.79-1.5-0.47-2.67,0.29-4.06c0.79-1.46,0.97-2.99,0.45-4.57c-0.56-1.67-2.05-3.67-1.41-5.51c0.29-0.81,1.13-1.25,1.97-1.16
							C336.39,435.17,335.87,434.35,335.59,434.32z"/>
					</g>
				</g>
				<g>
					<path class="st5" d="M363.8,453.69c0,0-5.44-1.43-8.52,1.84c-3.08,3.27-6.3,2.51-7.7,4.76c-1.4,2.25-3.02,7.67,0.43,8.69
						c3.44,1.02,6.14-2.28,10.25-1.74c4.11,0.54,9.92-3.56,9.42-5.63c-0.5-2.07,2.1-3.64,3.07-3.75c0.98-0.11,2.77-0.78,3.52-2.7
						c0.74-1.92-1.02-4.49-3.46-3.14C368.37,453.35,365.68,454.24,363.8,453.69z"/>
					<g>
						<path class="st5" d="M364.09,453.4c-1.63-0.42-3.43-0.45-5.07-0.13c-1.26,0.24-2.49,0.74-3.49,1.56
							c-0.74,0.6-1.35,1.34-2.15,1.88c-0.72,0.49-1.5,0.85-2.31,1.16c-1.09,0.42-2.27,0.74-3.19,1.51c-0.84,0.71-1.3,1.79-1.68,2.79
							c-0.7,1.85-1.41,4.72,0.17,6.34c1.76,1.81,4.72,0.81,6.71,0.04c1.65-0.64,3.2-1.14,4.99-0.98c1.34,0.12,2.63-0.07,3.9-0.5
							c2.14-0.72,4.73-2.11,5.87-4.16c0.55-0.98,0.01-1.99,0.54-2.95c0.64-1.16,1.72-1.59,2.92-1.89c2.41-0.6,5.03-3.71,2.79-5.98
							c-0.97-0.98-2.34-0.89-3.5-0.33C368.62,452.72,366.37,453.97,364.09,453.4c-0.37-0.09-1.15,0.45-0.58,0.59
							c1.22,0.31,2.46,0.18,3.66-0.13c0.7-0.19,1.39-0.43,2.06-0.72c0.78-0.34,1.6-0.96,2.43-1.13c1.48-0.31,2.44,1.38,2.25,2.65
							c-0.2,1.38-1.44,2.5-2.75,2.82c-1.68,0.41-3.63,1.31-4,3.23c-0.09,0.46,0.07,0.87,0.05,1.32c-0.02,0.4-0.24,0.77-0.46,1.09
							c-0.65,0.94-1.63,1.66-2.58,2.24c-1.15,0.7-2.43,1.25-3.76,1.5c-1.29,0.24-2.56-0.08-3.86,0.07
							c-2.49,0.28-4.82,2.12-7.35,1.94c-2.73-0.2-3.02-2.8-2.55-4.99c0.22-1.01,0.57-2,1.04-2.91c0.55-1.07,1.3-1.63,2.41-2.07
							c1.34-0.53,2.7-0.97,3.9-1.8c1.36-0.93,2.29-2.28,3.87-2.88c1.73-0.65,3.84-0.68,5.63-0.22
							C363.88,454.09,364.66,453.54,364.09,453.4z"/>
					</g>
				</g>
				<g>
					<path class="st9" d="M330.44,464.93c1.22,1.14,2.35,2.39,3.41,3.68c1.66,2.01,3.59,4.47,3.86,7.16
						c0.07,0.7,1.96,1.31,1.88,0.54c-0.29-2.85-2.23-5.46-3.98-7.61c-1.19-1.47-2.48-2.89-3.86-4.18
						C331.18,463.98,329.49,464.04,330.44,464.93L330.44,464.93z"/>
				</g>
				<g>
					<path class="st9" d="M340.53,473.41c-0.69-0.76-0.7-2.27-0.78-3.23c-0.16-1.87-0.15-3.75-0.12-5.62
						c0.07-3.96,0.34-7.92,0.66-11.87c0.07-0.88,0.15-1.76,0.23-2.63c0.04-0.42-1.12-0.19-1.16,0.16
						c-0.64,6.53-1.27,13.25-0.82,19.8c0.08,1.15,0.07,2.91,0.9,3.83C339.69,474.12,340.8,473.7,340.53,473.41L340.53,473.41z"/>
				</g>
				<g>
					<path class="st9" d="M350,464.28c-2.05,1.48-4.01,3.14-5.82,4.91c-1.3,1.27-2.56,2.65-3.52,4.2c-0.7,1.15-1.34,2.58-0.94,3.94
						c0.2,0.68,1.95,0.21,1.74-0.47c-0.38-1.27,0.31-2.57,0.98-3.61c0.95-1.48,2.19-2.77,3.46-3.99c1.63-1.56,3.37-3.04,5.2-4.36
						C352.07,464.21,350.61,463.84,350,464.28L350,464.28z"/>
				</g>
			</g>
		</g>
		<g>
			<g>
				<path class="st8" d="M347.18,519.2c0,0,1.06-0.91,1.78,1.05c0.71,1.96,1.63,7.02,0.33,7.14c-1.31,0.13-2.03-4.13-2.03-4.13
					S346.68,519.61,347.18,519.2z"/>
				<g>
					<path class="st2" d="M357.42,512.53c-0.78,3.3-3.04,8.02-7.18,6.95c-0.78-0.2-0.63-1.05,0.17-0.84c3.3,0.86,5.1-3.86,5.7-6.36
						C356.24,511.7,357.55,511.96,357.42,512.53L357.42,512.53z"/>
				</g>
				<g>
					<path class="st2" d="M355.46,508.67c-0.05,3.97-1.13,10.15-5.88,10.85c-0.65,0.1-1.36-0.82-0.5-0.95
						c4.17-0.62,5.03-6.71,5.07-9.9C354.15,507.97,355.47,508.07,355.46,508.67L355.46,508.67z"/>
				</g>
				<g>
					<path class="st2" d="M352.28,507.16c0.89,4.23,1.13,11.23-4.05,12.66c-0.49,0.14-1.56-0.54-0.81-0.75
						c4.77-1.32,4.37-8.11,3.56-11.95C350.85,506.53,352.17,506.64,352.28,507.16L352.28,507.16z"/>
				</g>
				<path class="st8" d="M327.05,519.53c0,0,1.06-0.91,1.78,1.05c0.71,1.96,1.63,7.02,0.33,7.14c-1.31,0.13-2.03-4.13-2.03-4.13
					S326.56,519.94,327.05,519.53z"/>
				<g>
					<path class="st2" d="M337.29,512.86c-0.78,3.3-3.04,8.02-7.18,6.95c-0.78-0.2-0.63-1.05,0.17-0.84c3.3,0.86,5.1-3.86,5.7-6.36
						C336.11,512.02,337.42,512.29,337.29,512.86L337.29,512.86z"/>
				</g>
				<g>
					<path class="st2" d="M335.33,509c-0.05,3.97-1.13,10.15-5.88,10.85c-0.65,0.1-1.36-0.82-0.5-0.95c4.17-0.62,5.03-6.71,5.07-9.9
						C334.03,508.3,335.34,508.4,335.33,509L335.33,509z"/>
				</g>
				<g>
					<path class="st2" d="M332.15,507.49c0.89,4.23,1.13,11.23-4.05,12.66c-0.49,0.14-1.56-0.54-0.81-0.75
						c4.77-1.32,4.37-8.11,3.56-11.95C330.72,506.86,332.04,506.97,332.15,507.49L332.15,507.49z"/>
				</g>
			</g>
			<g>
				<g>
					<path class="st2" d="M301.82,567.84c0.78,0.77,1.55,1.57,2.27,2.39c0.28,0.32,2.43,2.52,2,3.04c-0.42,0.5-3.74-1.67-4.2-1.95
						c-1-0.62-1.99-1.26-2.95-1.94c-0.13-0.09-0.61,0.15-0.55,0.19c1.26,0.89,2.55,1.73,3.89,2.5c0.91,0.53,2.95,1.99,4.11,1.36
						c1.3-0.71-3.34-5.11-4.01-5.77C302.27,567.55,301.75,567.77,301.82,567.84L301.82,567.84z"/>
				</g>
				<g>
					<path class="st2" d="M371.9,567.77c-0.62,0.61-5.28,5.25-4.04,5.74c0.45,0.18,1.22-0.17,1.63-0.33
						c0.88-0.34,1.72-0.81,2.53-1.28c1.31-0.76,2.59-1.6,3.83-2.47c0.11-0.07-0.41-0.02-0.52,0.06c-0.78,0.55-6.85,4.61-7.17,3.6
						c-0.12-0.39,0.45-1.06,0.64-1.34c0.43-0.61,0.92-1.18,1.42-1.73c0.71-0.79,1.44-1.57,2.2-2.31
						C372.53,567.61,372,567.68,371.9,567.77L371.9,567.77z"/>
				</g>
			</g>
		</g>
	</g>
	<g style="clip-path:url(#XMLID_00000177486047517198167070000015974545394561059972_);">
		<g>
			<path class="st4" d="M447.62,486.49c0,0,9.8,10.57,7.81,17.15c-1.99,6.57-25.62,11.55-29.74,21.05
				c-1.13,2.61-3.75,0.94-2.56-1.09c0.32-0.55,0.75-1.72,3.59-4.91c6.42-7.21,20.14-16.04,16.54-17.44
				C429.04,495.7,438.92,484.04,447.62,486.49z"/>
			<path class="st4" d="M479.51,486.57c0,0,9.45,7.76,8.54,13.51c-0.91,5.76-20.21,12.66-22.57,21.12
				c-0.65,2.33-3.04,1.22-2.28-0.63c0.21-0.5,0.43-1.53,2.45-4.54c4.56-6.8,15.09-15.8,11.89-16.57
				C464.95,496.44,471.92,485.5,479.51,486.57z"/>
		</g>
		<g>
			<g>
				<path class="st10" d="M460.78,391.39c7.18,0.22,33.39,15.23,38.94,47.73c7.68,45.01-27.39,51.38-30.78,58.12
					c-3.02,6.03-3.68,5.32-5.19,5.79c-4.89,1.51-6.03-3.24-11.05-2.83c-5.03,0.4-51.38,0.68-55.02-38.95
					c-3.64-39.62,0.13-52.55,28-64.75c0,0,3.21-1.52,4.46-4.47c1.25-2.95,4.61-8.74,10.25-8.58c5.64,0.16,6.3,0.98,10.76,4.5
					C455.62,391.48,460.78,391.39,460.78,391.39z"/>
				<path class="st10" d="M465.43,502.62c-0.37,0.22-0.7,0.29-1.07,0.37c-0.18,0.04-0.37,0.08-0.57,0.14
					c-2.64,0.82-4.2-0.16-5.85-1.19c-1.43-0.9-2.91-1.82-5.23-1.64c-0.14,0.01-13.91,0.94-28.07-4.47
					c-7.26-2.77-13.18-6.69-17.6-11.65c-5.43-6.1-8.61-13.81-9.45-22.92c-1.73-18.83-1.96-32.54,2.19-42.71
					c3.83-9.36,11.32-15.78,25.87-22.15c0.03-0.01,3.19-1.54,4.4-4.41c0.88-2.07,4.22-8.82,10.35-8.64
					c5.31,0.15,6.22,0.87,10.01,3.88c0.26,0.2,0.52,0.42,0.81,0.64c4.39,3.46,9.52,3.41,9.57,3.41h0
					c3.96,0.12,12.37,4.3,20.15,11.79c6.95,6.7,15.88,18.38,18.89,36.03c1.37,8.06,1.45,15.43,0.23,21.91
					c-1.05,5.56-3.08,10.62-6.05,15.06c-5.43,8.11-12.9,12.72-18.36,16.08c-3.25,2-5.82,3.59-6.6,5.14
					C467.22,500.92,466.25,502.13,465.43,502.62z M415.75,401.63c-8.17,4.85-12.98,10.13-15.79,17.01
					c-4.14,10.13-3.9,23.81-2.18,42.61c0.83,9.06,3.99,16.73,9.4,22.8c4.4,4.94,10.3,8.84,17.52,11.6
					c14.13,5.39,27.85,4.47,27.98,4.46c2.39-0.19,3.9,0.75,5.35,1.67c1.61,1.01,3.13,1.96,5.68,1.17c0.21-0.07,0.4-0.11,0.59-0.15
					c1.13-0.25,1.95-0.43,4.54-5.59c0.81-1.61,3.4-3.2,6.68-5.22c5.44-3.35,12.9-7.94,18.3-16.02c2.95-4.41,4.98-9.45,6.02-14.98
					c1.22-6.46,1.14-13.8-0.23-21.84c-3-17.59-11.89-29.24-18.83-35.92c-8.68-8.36-16.88-11.63-20.01-11.73
					c-0.15,0-5.3,0.02-9.7-3.45c-0.28-0.22-0.55-0.44-0.81-0.64c-3.75-2.98-4.65-3.69-9.89-3.84c-6-0.17-9.29,6.47-10.16,8.52
					c-1.25,2.95-4.48,4.5-4.51,4.52C421.94,398.25,418.63,399.91,415.75,401.63z"/>
			</g>
			<g class="st11">
				<g>
					<path class="st12" d="M435.28,437.27c0.14,0.24,0.06,0.55-0.18,0.7c-0.24,0.14-0.55,0.06-0.7-0.18
						c-0.14-0.24-0.06-0.55,0.18-0.7C434.83,436.95,435.14,437.03,435.28,437.27z"/>
					<g>
						<path class="st12" d="M434.95,437.47c0.08,0.14-0.13,0.27-0.21,0.13C434.65,437.46,434.86,437.33,434.95,437.47
							c0.27,0.41,0.93,0.02,0.66-0.39c-0.27-0.4-0.79-0.57-1.22-0.31c-0.42,0.25-0.55,0.8-0.31,1.22c0.24,0.41,0.78,0.55,1.2,0.32
							c0.45-0.25,0.56-0.8,0.34-1.23C435.38,436.64,434.72,437.03,434.95,437.47z"/>
					</g>
				</g>
				<g>
					<path class="st12" d="M436.04,432.83c0.14,0.24,0.06,0.55-0.18,0.7c-0.24,0.14-0.55,0.06-0.7-0.18
						c-0.14-0.24-0.06-0.55,0.18-0.7C435.59,432.51,435.9,432.59,436.04,432.83z"/>
					<g>
						<path class="st12" d="M435.71,433.03c0.08,0.14-0.13,0.27-0.21,0.13C435.41,433.02,435.62,432.9,435.71,433.03
							c0.27,0.41,0.93,0.02,0.66-0.39c-0.27-0.4-0.79-0.57-1.22-0.31c-0.42,0.25-0.55,0.8-0.31,1.22c0.24,0.41,0.78,0.55,1.2,0.32
							c0.45-0.25,0.56-0.8,0.34-1.23C436.14,432.2,435.48,432.59,435.71,433.03z"/>
					</g>
				</g>
				<g>
					<path class="st12" d="M431.04,433.48c0.13,0.23,0.06,0.52-0.17,0.65c-0.23,0.13-0.52,0.06-0.65-0.17
						c-0.13-0.23-0.06-0.52,0.17-0.65C430.61,433.18,430.9,433.26,431.04,433.48z"/>
					<g>
						<path class="st12" d="M430.71,433.68c0.06,0.11-0.1,0.2-0.16,0.09C430.48,433.67,430.64,433.58,430.71,433.68
							c0.27,0.41,0.93,0.02,0.66-0.39c-0.26-0.39-0.76-0.55-1.18-0.3c-0.4,0.24-0.53,0.77-0.3,1.18c0.23,0.4,0.76,0.53,1.15,0.31
							c0.44-0.23,0.54-0.77,0.32-1.19C431.14,432.85,430.48,433.24,430.71,433.68z"/>
					</g>
				</g>
				<g>
					<path class="st12" d="M431.86,428.16c0.14,0.24,0.06,0.55-0.18,0.7c-0.24,0.14-0.55,0.06-0.7-0.18
						c-0.14-0.24-0.06-0.55,0.18-0.7C431.4,427.84,431.72,427.92,431.86,428.16z"/>
					<g>
						<path class="st12" d="M431.53,428.35c0.08,0.14-0.13,0.27-0.21,0.13C431.23,428.34,431.44,428.22,431.53,428.35
							c0.27,0.41,0.93,0.02,0.66-0.39c-0.27-0.4-0.79-0.57-1.22-0.31c-0.42,0.25-0.55,0.8-0.31,1.22c0.24,0.41,0.78,0.55,1.2,0.32
							c0.45-0.25,0.56-0.8,0.34-1.23C431.96,427.52,431.3,427.92,431.53,428.35z"/>
					</g>
				</g>
				<g>
					<path class="st12" d="M441.67,424.66c0.15,0.26,0.07,0.59-0.19,0.74c-0.26,0.15-0.59,0.07-0.74-0.19
						c-0.15-0.26-0.07-0.59,0.19-0.74C441.18,424.32,441.51,424.4,441.67,424.66z"/>
					<g>
						<path class="st12" d="M441.34,424.85c0.09,0.18-0.17,0.33-0.27,0.16C440.96,424.84,441.22,424.69,441.34,424.85
							c0.27,0.41,0.93,0.02,0.66-0.39c-0.28-0.42-0.82-0.59-1.26-0.32c-0.43,0.26-0.57,0.83-0.32,1.26
							c0.25,0.43,0.81,0.57,1.24,0.34c0.47-0.26,0.58-0.83,0.35-1.28C441.77,424.03,441.11,424.42,441.34,424.85z"/>
					</g>
				</g>
				<g>
					<path class="st12" d="M445.27,431.23c0.13,0.23,0.06,0.52-0.17,0.65c-0.23,0.13-0.52,0.06-0.65-0.17
						c-0.13-0.23-0.06-0.52,0.17-0.65C444.85,430.93,445.14,431,445.27,431.23z"/>
					<g>
						<path class="st12" d="M444.94,431.42c0.06,0.11-0.1,0.2-0.16,0.09C444.72,431.41,444.88,431.32,444.94,431.42
							c0.27,0.41,0.93,0.02,0.66-0.39c-0.26-0.39-0.76-0.55-1.18-0.3c-0.4,0.24-0.53,0.77-0.3,1.18c0.23,0.4,0.76,0.53,1.15,0.31
							c0.44-0.23,0.54-0.77,0.32-1.19C445.37,430.59,444.71,430.99,444.94,431.42z"/>
					</g>
				</g>
				<g>
					<path class="st12" d="M443.74,442.69c0.21,0.35,0.09,0.79-0.25,1c-0.35,0.21-0.79,0.09-1-0.25c-0.21-0.35-0.09-0.79,0.25-1
						C443.09,442.23,443.53,442.35,443.74,442.69z"/>
					<g>
						<path class="st12" d="M443.41,442.89c0.21,0.4-0.37,0.74-0.6,0.35C442.59,442.86,443.16,442.52,443.41,442.89
							c0.27,0.41,0.93,0.02,0.66-0.39c-0.34-0.5-0.98-0.71-1.52-0.39c-0.52,0.31-0.69,1-0.39,1.53c0.3,0.51,0.97,0.69,1.49,0.41
							c0.57-0.31,0.71-1,0.42-1.54C443.84,442.06,443.18,442.45,443.41,442.89z"/>
					</g>
				</g>
				<g>
					<path class="st12" d="M435.86,444.34c0.1,0.17,0.04,0.38-0.12,0.48c-0.17,0.1-0.38,0.04-0.48-0.12
						c-0.1-0.17-0.04-0.38,0.12-0.48C435.55,444.12,435.77,444.18,435.86,444.34z"/>
					<g>
						<path class="st12" d="M435.53,444.54C435.52,444.5,435.53,444.52,435.53,444.54c0,0,0.01-0.06,0-0.03
							c-0.01,0.04,0.01-0.01,0.01-0.02c0.01-0.03-0.05,0.03,0,0c0.03-0.02,0.02,0-0.01,0c0.02,0,0.08,0.01,0.04-0.01
							c-0.04-0.01,0.01,0.01,0.02,0.01c0.03,0.02-0.03-0.06,0,0c0.02,0.03,0.01,0.02,0-0.01c0.01,0.02,0,0.03,0,0.05
							c0.02-0.11,0,0.01-0.01,0c0,0.01,0.02-0.02,0.01-0.01c-0.04,0.02-0.04,0.02,0,0.01c-0.02,0-0.03,0-0.05,0
							C435.58,444.56,435.57,444.57,435.53,444.54C435.51,444.52,435.58,444.6,435.53,444.54c0.12,0.17,0.34,0.24,0.52,0.13
							c0.17-0.1,0.25-0.35,0.13-0.52c-0.22-0.33-0.65-0.47-1-0.26c-0.35,0.21-0.45,0.66-0.26,1c0.2,0.34,0.65,0.45,0.99,0.26
							c0.37-0.2,0.46-0.66,0.27-1.01c-0.1-0.18-0.35-0.24-0.52-0.13C435.48,444.13,435.44,444.36,435.53,444.54z"/>
					</g>
				</g>
				<g>
					<path class="st12" d="M429.32,441.03c0.18,0.3,0.08,0.69-0.22,0.87c-0.3,0.18-0.69,0.08-0.87-0.22
						c-0.18-0.3-0.08-0.69,0.22-0.87C428.75,440.63,429.14,440.73,429.32,441.03z"/>
					<g>
						<path class="st12" d="M428.99,441.23c0.15,0.29-0.27,0.54-0.43,0.26C428.39,441.21,428.81,440.96,428.99,441.23
							c0.27,0.41,0.93,0.02,0.66-0.39c-0.31-0.46-0.9-0.65-1.39-0.36c-0.48,0.28-0.63,0.92-0.36,1.39c0.27,0.47,0.89,0.63,1.36,0.37
							c0.52-0.28,0.65-0.91,0.39-1.41C429.42,440.4,428.76,440.79,428.99,441.23z"/>
					</g>
				</g>
				<g>
					<path class="st12" d="M426.29,422.64c0.21,0.35,0.09,0.79-0.25,1c-0.35,0.21-0.79,0.09-1-0.25c-0.21-0.35-0.09-0.79,0.25-1
						C425.64,422.18,426.09,422.29,426.29,422.64z"/>
					<g>
						<path class="st12" d="M425.97,422.84c0.21,0.4-0.37,0.74-0.6,0.35C425.14,422.8,425.72,422.47,425.97,422.84
							c0.27,0.41,0.93,0.02,0.66-0.39c-0.34-0.5-0.98-0.71-1.52-0.39c-0.52,0.31-0.69,1-0.39,1.53c0.3,0.51,0.97,0.69,1.49,0.41
							c0.57-0.31,0.71-1,0.42-1.54C426.39,422.01,425.74,422.4,425.97,422.84z"/>
					</g>
				</g>
				<g>
					<path class="st12" d="M425.28,431.37c0.17,0.29,0.08,0.66-0.21,0.83c-0.29,0.17-0.66,0.08-0.83-0.21
						c-0.17-0.29-0.08-0.66,0.21-0.83C424.74,430.99,425.11,431.08,425.28,431.37z"/>
					<g>
						<path class="st12" d="M424.95,431.56c0.13,0.25-0.23,0.47-0.38,0.22C424.42,431.54,424.79,431.33,424.95,431.56
							c0.27,0.41,0.93,0.02,0.66-0.39c-0.3-0.44-0.87-0.63-1.35-0.34c-0.46,0.27-0.61,0.89-0.34,1.35c0.26,0.45,0.87,0.61,1.32,0.36
							c0.5-0.27,0.63-0.88,0.37-1.37C425.38,430.73,424.72,431.13,424.95,431.56z"/>
					</g>
				</g>
			</g>
		</g>
		<g>
			<g>
				<path class="st8" d="M469.52,422c0,0,1.02-0.99,1.87,0.96c0.85,1.95,2.11,7.02,0.79,7.23c-1.32,0.21-2.32-4.06-2.32-4.06
					S469.04,422.44,469.52,422z"/>
				<g>
					<path class="st2" d="M479.49,414.56c-0.58,3.41-2.58,8.34-6.84,7.51c-0.81-0.16-0.71-1.03,0.12-0.87
						c3.4,0.66,4.94-4.25,5.38-6.83C478.24,413.79,479.59,413.98,479.49,414.56L479.49,414.56z"/>
				</g>
				<g>
					<path class="st2" d="M477.25,410.77c0.2,4.03-0.5,10.38-5.28,11.4c-0.66,0.14-1.44-0.75-0.57-0.93
						c4.19-0.9,4.68-7.14,4.51-10.38C475.88,410.15,477.22,410.16,477.25,410.77L477.25,410.77z"/>
				</g>
				<g>
					<path class="st2" d="M473.93,409.44c1.18,4.24,1.87,11.33-3.3,13.12c-0.49,0.17-1.62-0.45-0.87-0.71
						c4.76-1.65,3.91-8.52,2.85-12.36C472.43,408.89,473.78,408.92,473.93,409.44L473.93,409.44z"/>
				</g>
				<path class="st8" d="M449.1,423.62c0,0,1.02-0.99,1.87,0.96c0.85,1.95,2.11,7.02,0.79,7.23c-1.32,0.21-2.32-4.06-2.32-4.06
					S448.62,424.06,449.1,423.62z"/>
				<g>
					<path class="st2" d="M459.07,416.19c-0.58,3.41-2.58,8.34-6.84,7.51c-0.81-0.16-0.71-1.03,0.12-0.87
						c3.4,0.66,4.94-4.25,5.38-6.83C457.82,415.42,459.17,415.6,459.07,416.19L459.07,416.19z"/>
				</g>
				<g>
					<path class="st2" d="M456.84,412.4c0.2,4.03-0.5,10.38-5.28,11.4c-0.66,0.14-1.44-0.75-0.57-0.93
						c4.19-0.9,4.68-7.14,4.51-10.38C455.46,411.77,456.8,411.78,456.84,412.4L456.84,412.4z"/>
				</g>
				<g>
					<path class="st2" d="M453.51,411.06c1.18,4.24,1.87,11.33-3.3,13.12c-0.49,0.17-1.62-0.45-0.87-0.71
						c4.76-1.65,3.91-8.52,2.85-12.36C452.02,410.51,453.37,410.54,453.51,411.06L453.51,411.06z"/>
				</g>
			</g>
			<g>
				<g>
					<path class="st2" d="M461.73,455.2c1.04,0.2,2.08,0.43,3.11,0.69c0.81,0.21,1.62,0.43,2.39,0.73c0.29,0.12,1.14,0.38,1.19,0.78
						c0.01,0.11,0.16-0.12-0.11,0.08c-0.1,0.07-0.26,0.1-0.39,0.14c-0.44,0.13-0.9,0.2-1.35,0.26c-0.93,0.12-1.87,0.18-2.8,0.21
						c-1.2,0.04-2.39,0.06-3.59,0.03c-0.16,0-0.45,0.45-0.38,0.45c1.56,0.04,3.13,0.02,4.7-0.08c1.08-0.07,3.61,0.02,4.26-1.15
						c0.72-1.29-5.74-2.43-6.63-2.6C461.97,454.72,461.64,455.18,461.73,455.2L461.73,455.2z"/>
				</g>
				<g>
					<path class="st2" d="M485.98,442.35c1.04,0.2,2.08,0.43,3.11,0.69c0.81,0.21,1.62,0.43,2.39,0.73
						c0.29,0.12,1.14,0.38,1.19,0.78c0.01,0.11,0.17-0.12-0.11,0.08c-0.1,0.07-0.26,0.1-0.39,0.14c-0.44,0.13-0.9,0.2-1.35,0.26
						c-0.93,0.12-1.87,0.18-2.8,0.21c-1.2,0.04-2.4,0.06-3.59,0.03c-0.16,0-0.45,0.45-0.38,0.45c1.56,0.04,3.13,0.02,4.7-0.08
						c1.08-0.07,3.61,0.02,4.26-1.15c0.72-1.29-5.74-2.43-6.63-2.6C486.22,441.87,485.89,442.34,485.98,442.35L485.98,442.35z"/>
				</g>
			</g>
		</g>
	</g>
	<g style="clip-path:url(#XMLID_00000177486047517198167070000015974545394561059972_);">
		<g>
			<path class="st4" d="M553.7,349.08c0,0,6.52,11.77,12.93,11.92c6.41,0.15,17.71-19.36,27.33-20.24c2.65-0.24,1.92-3.05-0.23-2.59
				c-0.59,0.13-1.74,0.17-5.4,1.76c-8.26,3.59-20.09,13.2-20.29,9.59C567.27,335.27,554.05,340.65,553.7,349.08z"/>
			<path class="st4" d="M544.47,377.38c0,0,4.13,10.64,9.5,11.51c5.37,0.87,17.11-14.24,25.3-13.87c2.25,0.1,1.97-2.34,0.11-2.2
				c-0.51,0.04-1.49-0.06-4.74,0.85c-7.36,2.07-18.41,8.78-18.16,5.72C557.47,367.35,545.74,370.34,544.47,377.38z"/>
		</g>
		<g>
			<g>
				<path class="st5" d="M571.25,353.32c1.02,5.44-5.95,27.64-29.5,37.18c-32.61,13.2-43.19-12.14-48.82-13.57
					c-5.04-1.28-4.61-1.89-5.21-2.95c-1.94-3.43,1.44-5.07,0.31-8.79c-1.13-3.72-8.99-38.56,20.23-47.83
					c29.22-9.28,39.57-8.57,53.35,10.39c0,0,1.67,2.16,4.1,2.62c2.42,0.45,7.34,2.03,8.15,6.3c0.81,4.27,0.3,4.9-1.61,8.84
					C570.32,349.44,571.25,353.32,571.25,353.32z"/>
				<path class="st5" d="M574.27,340.62c-0.16,1.27-0.68,2.35-1.59,4.21c-0.11,0.23-0.23,0.46-0.35,0.71
					c-1.88,3.86-1,7.71-0.99,7.75l0,0c0.56,3-1.19,10.03-5.55,17.12c-3.89,6.34-11.22,14.99-24.01,20.17
					c-10.83,4.39-20.52,4.97-28.79,1.72c-7-2.75-11.7-7.62-15.14-11.17c-2.04-2.12-3.66-3.79-4.95-4.12
					c-4.39-1.12-4.68-1.74-5.07-2.59c-0.06-0.13-0.12-0.26-0.2-0.41c-1.05-1.86-0.57-3.2-0.07-4.61c0.44-1.22,0.89-2.48,0.37-4.19
					c-0.03-0.1-3-10.32-1.27-21.87c0.89-5.92,2.86-11.03,5.87-15.18c3.7-5.1,8.98-8.77,15.7-10.9c13.89-4.41,24.17-6.85,32.51-5.4
					c7.68,1.34,13.75,5.92,20.95,15.82c0.01,0.02,1.68,2.14,4.04,2.58c1.71,0.32,7.35,1.72,8.22,6.38
					C574.28,338.44,574.39,339.6,574.27,340.62z M571.04,349.28c0.15-1.17,0.47-2.5,1.11-3.82c0.12-0.25,0.24-0.49,0.35-0.71
					c1.62-3.31,2.01-4.1,1.26-8.07c-0.86-4.53-6.4-5.91-8.07-6.22c-2.43-0.45-4.14-2.63-4.15-2.65
					c-7.17-9.86-13.2-14.42-20.83-15.74c-8.3-1.44-18.56,0.99-32.42,5.39c-6.68,2.12-11.93,5.76-15.6,10.83
					c-2.99,4.12-4.95,9.2-5.83,15.09c-1.72,11.52,1.23,21.69,1.26,21.79c0.54,1.77,0.08,3.06-0.37,4.31
					c-0.49,1.37-0.96,2.67,0.05,4.45c0.08,0.15,0.15,0.29,0.21,0.42c0.37,0.81,0.64,1.39,4.95,2.49c1.35,0.34,2.98,2.03,5.04,4.17
					c3.42,3.54,8.1,8.39,15.07,11.13c8.23,3.23,17.86,2.65,28.65-1.72c12.74-5.16,20.04-13.77,23.92-20.09
					c4.86-7.91,5.97-14.61,5.52-16.98C571.13,353.26,570.76,351.55,571.04,349.28z"/>
			</g>
			<g class="st11">
				<g>
					<path class="st13" d="M531.05,349.12c0.26,0.03,0.44,0.27,0.41,0.53c-0.03,0.26-0.27,0.44-0.53,0.41
						c-0.26-0.03-0.44-0.27-0.41-0.53C530.56,349.27,530.79,349.09,531.05,349.12z"/>
					<g>
						<path class="st13" d="M531.01,349.47c0.15,0.03,0.12,0.25-0.03,0.23C530.83,349.69,530.86,349.46,531.01,349.47
							c0.46,0.03,0.55-0.68,0.09-0.71c-0.45-0.03-0.87,0.26-0.93,0.72c-0.06,0.45,0.28,0.87,0.72,0.93c0.44,0.06,0.85-0.26,0.92-0.7
							c0.08-0.47-0.26-0.87-0.72-0.95C530.65,348.68,530.56,349.39,531.01,349.47z"/>
					</g>
				</g>
				<g>
					<path class="st13" d="M528.22,346.02c0.26,0.03,0.44,0.27,0.41,0.53c-0.03,0.26-0.27,0.44-0.53,0.41
						c-0.26-0.03-0.44-0.27-0.41-0.53C527.72,346.17,527.96,345.99,528.22,346.02z"/>
					<g>
						<path class="st13" d="M528.17,346.37c0.15,0.03,0.12,0.25-0.03,0.23C527.99,346.59,528.02,346.36,528.17,346.37
							c0.46,0.03,0.55-0.68,0.09-0.71c-0.45-0.03-0.87,0.26-0.93,0.72c-0.06,0.45,0.28,0.87,0.72,0.93c0.44,0.06,0.85-0.26,0.92-0.7
							c0.08-0.47-0.26-0.87-0.72-0.95C527.81,345.58,527.72,346.29,528.17,346.37z"/>
					</g>
				</g>
				<g>
					<path class="st13" d="M525.83,350.08c0.24,0.03,0.42,0.25,0.39,0.5c-0.03,0.24-0.25,0.42-0.5,0.39
						c-0.24-0.03-0.42-0.25-0.39-0.5C525.36,350.22,525.59,350.05,525.83,350.08z"/>
					<g>
						<path class="st13" d="M525.78,350.43c0.11,0.02,0.09,0.19-0.02,0.17C525.65,350.59,525.67,350.43,525.78,350.43
							c0.46,0.03,0.55-0.68,0.09-0.71c-0.43-0.03-0.84,0.25-0.9,0.7c-0.05,0.44,0.27,0.84,0.7,0.9c0.43,0.06,0.82-0.26,0.89-0.67
							c0.08-0.46-0.26-0.84-0.69-0.92C525.42,349.64,525.33,350.35,525.78,350.43z"/>
					</g>
				</g>
				<g>
					<path class="st13" d="M522.38,346.42c0.26,0.03,0.44,0.27,0.41,0.53c-0.03,0.26-0.27,0.44-0.53,0.41
						c-0.26-0.03-0.44-0.27-0.41-0.53C521.88,346.57,522.12,346.39,522.38,346.42z"/>
					<g>
						<path class="st13" d="M522.33,346.78c0.15,0.03,0.12,0.25-0.03,0.23C522.15,346.99,522.18,346.77,522.33,346.78
							c0.46,0.03,0.55-0.68,0.09-0.71c-0.45-0.03-0.87,0.26-0.93,0.72c-0.06,0.45,0.28,0.87,0.72,0.93c0.44,0.06,0.85-0.26,0.92-0.7
							c0.08-0.47-0.26-0.87-0.72-0.95C521.97,345.99,521.88,346.7,522.33,346.78z"/>
					</g>
				</g>
				<g>
					<path class="st13" d="M525.41,337.19c0.28,0.03,0.47,0.29,0.44,0.56c-0.03,0.28-0.29,0.47-0.56,0.44
						c-0.28-0.03-0.47-0.29-0.44-0.56C524.88,337.35,525.13,337.15,525.41,337.19z"/>
					<g>
						<path class="st13" d="M525.37,337.54c0.19,0.03,0.15,0.31-0.04,0.29C525.14,337.81,525.18,337.53,525.37,337.54
							c0.46,0.03,0.55-0.68,0.09-0.71c-0.47-0.03-0.9,0.27-0.96,0.75c-0.06,0.47,0.28,0.9,0.75,0.96c0.46,0.06,0.88-0.27,0.96-0.72
							c0.08-0.49-0.27-0.9-0.74-0.99C525,336.75,524.91,337.46,525.37,337.54z"/>
					</g>
				</g>
				<g>
					<path class="st13" d="M532.32,338.29c0.24,0.03,0.42,0.25,0.39,0.5c-0.03,0.24-0.25,0.42-0.5,0.39
						c-0.24-0.03-0.42-0.25-0.39-0.5C531.85,338.43,532.07,338.26,532.32,338.29z"/>
					<g>
						<path class="st13" d="M532.27,338.65c0.11,0.02,0.09,0.19-0.02,0.17C532.14,338.81,532.16,338.64,532.27,338.65
							c0.46,0.03,0.55-0.68,0.09-0.71c-0.43-0.03-0.84,0.25-0.9,0.7c-0.05,0.44,0.27,0.84,0.7,0.9c0.43,0.06,0.82-0.26,0.89-0.67
							c0.08-0.46-0.26-0.84-0.69-0.92C531.91,337.85,531.82,338.56,532.27,338.65z"/>
					</g>
				</g>
				<g>
					<path class="st13" d="M539.89,345.98c0.37,0.05,0.64,0.39,0.59,0.76c-0.05,0.37-0.39,0.64-0.76,0.59
						c-0.37-0.05-0.64-0.39-0.59-0.76C539.18,346.2,539.52,345.94,539.89,345.98z"/>
					<g>
						<path class="st13" d="M539.85,346.34c0.41,0.07,0.34,0.69-0.08,0.64C539.35,346.93,539.43,346.31,539.85,346.34
							c0.46,0.03,0.55-0.68,0.09-0.71c-0.56-0.04-1.09,0.32-1.16,0.9c-0.07,0.56,0.34,1.09,0.9,1.16c0.55,0.07,1.06-0.33,1.15-0.87
							c0.1-0.59-0.33-1.09-0.9-1.2C539.49,345.55,539.4,346.26,539.85,346.34z"/>
					</g>
				</g>
				<g>
					<path class="st13" d="M536.6,352.74c0.18,0.02,0.31,0.19,0.28,0.36c-0.02,0.18-0.19,0.31-0.36,0.28
						c-0.18-0.02-0.31-0.19-0.28-0.36C536.26,352.84,536.42,352.72,536.6,352.74z"/>
					<g>
						<path class="st13" d="M536.56,353.09C536.52,353.09,536.54,353.08,536.56,353.09c0,0-0.04-0.04-0.02-0.01
							c0.02,0.03,0-0.01-0.01-0.02c-0.01-0.03-0.01,0.05,0,0c0-0.04,0.01-0.02,0,0.01c0.01-0.01,0.05-0.05,0.02-0.03
							c-0.03,0.02,0.01,0,0.02-0.01c0.03-0.01-0.06-0.01,0,0c0.03,0,0.02,0-0.01,0c0.02,0,0.03,0.02,0.04,0.03
							c-0.07-0.07,0.01,0.01,0,0.01c0.01,0,0-0.02,0-0.01c-0.01,0.04-0.01,0.04,0.01,0.01c-0.01,0.02-0.02,0.03-0.03,0.04
							C536.6,353.07,536.6,353.08,536.56,353.09C536.53,353.1,536.63,353.1,536.56,353.09c0.19,0.01,0.37-0.11,0.4-0.31
							c0.02-0.18-0.12-0.39-0.31-0.4c-0.37-0.03-0.72,0.21-0.76,0.59c-0.05,0.37,0.23,0.71,0.59,0.76c0.36,0.05,0.7-0.22,0.76-0.58
							c0.06-0.39-0.22-0.71-0.59-0.78c-0.19-0.03-0.38,0.13-0.4,0.31C536.22,352.89,536.37,353.06,536.56,353.09z"/>
					</g>
				</g>
				<g>
					<path class="st13" d="M530.41,355.67c0.32,0.04,0.55,0.34,0.51,0.66c-0.04,0.32-0.34,0.55-0.66,0.51
						c-0.32-0.04-0.55-0.34-0.51-0.66C529.79,355.86,530.09,355.63,530.41,355.67z"/>
					<g>
						<path class="st13" d="M530.37,356.02c0.3,0.05,0.24,0.5-0.06,0.47C530.01,356.45,530.07,356,530.37,356.02
							c0.46,0.03,0.55-0.68,0.09-0.71c-0.51-0.04-0.99,0.29-1.06,0.82c-0.06,0.51,0.31,0.99,0.82,1.06c0.5,0.07,0.97-0.3,1.05-0.79
							c0.09-0.54-0.3-1-0.82-1.09C530.01,355.23,529.92,355.94,530.37,356.02z"/>
					</g>
				</g>
				<g>
					<path class="st13" d="M515.12,347.37c0.37,0.05,0.64,0.39,0.59,0.76c-0.05,0.37-0.39,0.64-0.76,0.59
						c-0.37-0.05-0.64-0.39-0.59-0.76C514.41,347.59,514.75,347.32,515.12,347.37z"/>
					<g>
						<path class="st13" d="M515.08,347.72c0.41,0.07,0.34,0.69-0.08,0.64C514.58,348.31,514.66,347.69,515.08,347.72
							c0.46,0.03,0.55-0.68,0.09-0.71c-0.56-0.04-1.09,0.32-1.16,0.9c-0.07,0.56,0.34,1.09,0.9,1.16c0.55,0.07,1.06-0.33,1.15-0.87
							c0.1-0.59-0.33-1.09-0.9-1.2C514.71,346.93,514.63,347.64,515.08,347.72z"/>
					</g>
				</g>
				<g>
					<path class="st13" d="M520.97,353.11c0.31,0.04,0.53,0.32,0.49,0.63c-0.04,0.31-0.32,0.53-0.63,0.49
						c-0.31-0.04-0.53-0.32-0.49-0.63S520.66,353.07,520.97,353.11z"/>
					<g>
						<path class="st13" d="M520.93,353.47c0.26,0.05,0.21,0.44-0.05,0.41C520.61,353.84,520.66,353.45,520.93,353.47
							c0.46,0.03,0.55-0.68,0.09-0.71c-0.5-0.04-0.96,0.28-1.03,0.8c-0.06,0.5,0.3,0.96,0.8,1.03c0.49,0.06,0.94-0.29,1.02-0.77
							c0.09-0.53-0.29-0.97-0.79-1.06C520.56,352.68,520.48,353.39,520.93,353.47z"/>
					</g>
				</g>
			</g>
		</g>
		<g>
			<g>
				<path class="st8" d="M502.75,369.13c0,0-1.32,0.19-0.37,1.93c0.95,1.74,3.97,5.58,4.88,4.72c0.91-0.85-1.66-4.04-1.66-4.04
					S503.35,369.04,502.75,369.13z"/>
				<g>
					<path class="st2" d="M491.56,372.22c2.84,1.52,7.63,2.88,9.46-0.74c0.35-0.69-0.35-1.11-0.71-0.41
						c-1.46,2.89-5.96,1.2-8.11,0.05C491.71,370.86,491.07,371.96,491.56,372.22L491.56,372.22z"/>
				</g>
				<g>
					<path class="st2" d="M490.05,368.41c2.85,2.46,7.94,5.57,11.43,2.64c0.48-0.4,0.27-1.49-0.36-0.95
						c-3.06,2.58-7.94-0.64-10.24-2.62C490.37,367.04,489.61,368.03,490.05,368.41L490.05,368.41z"/>
				</g>
				<g>
					<path class="st2" d="M490.97,365.19c2.45,3.3,7.28,7.87,11.56,5.08c0.4-0.26,0.6-1.45-0.02-1.05
						c-3.94,2.56-8.52-1.99-10.74-4.99C491.42,363.78,490.67,364.79,490.97,365.19L490.97,365.19z"/>
				</g>
				<path class="st8" d="M515.64,355.02c0,0-1.32,0.19-0.37,1.93c0.95,1.74,3.97,5.58,4.88,4.72c0.91-0.85-1.66-4.04-1.66-4.04
					S516.24,354.92,515.64,355.02z"/>
				<g>
					<path class="st2" d="M504.45,358.11c2.84,1.52,7.63,2.88,9.46-0.74c0.35-0.69-0.35-1.11-0.71-0.41
						c-1.46,2.89-5.96,1.2-8.11,0.05C504.6,356.75,503.97,357.85,504.45,358.11L504.45,358.11z"/>
				</g>
				<g>
					<path class="st2" d="M502.94,354.29c2.85,2.46,7.94,5.57,11.43,2.64c0.48-0.4,0.27-1.49-0.36-0.95
						c-3.06,2.58-7.94-0.64-10.24-2.62C503.26,352.92,502.51,353.91,502.94,354.29L502.94,354.29z"/>
				</g>
				<g>
					<path class="st2" d="M503.86,351.07c2.45,3.29,7.28,7.87,11.56,5.08c0.4-0.26,0.6-1.45-0.02-1.05
						c-3.94,2.56-8.52-1.99-10.74-4.99C504.31,349.66,503.56,350.67,503.86,351.07L503.86,351.07z"/>
				</g>
			</g>
			<g>
				<g>
					<path class="st2" d="M509.5,384.98c-0.67,0.33-1.35,0.65-2.05,0.94c-0.5,0.21-1,0.41-1.52,0.56c-0.4,0.11-0.71,0.07-1.07,0.09
						c0.21-0.02-0.19,0.34,0.16,0.03c0.06-0.06,0.13-0.19,0.18-0.26c0.16-0.21,0.34-0.4,0.53-0.59c0.45-0.46,0.94-0.87,1.43-1.28
						c0.68-0.56,1.38-1.1,2.09-1.62c0.1-0.07-0.03-0.6-0.12-0.54c-0.93,0.67-1.84,1.38-2.7,2.13c-0.57,0.5-1.91,1.45-1.68,2.37
						c0.3,1.21,4.1-0.91,4.81-1.26C509.71,385.47,509.56,384.95,509.5,384.98L509.5,384.98z"/>
				</g>
				<g>
					<path class="st2" d="M536.66,366.43c-0.93,0.33-1.88,0.63-2.83,0.9c-0.71,0.2-1.42,0.39-2.15,0.51
						c-0.29,0.05-0.61,0.11-0.91,0.09c-0.14-0.01-0.59-0.13-0.51-0.01c0.09,0.13,0.07-0.08,0.19-0.22c0.08-0.1,0.16-0.2,0.25-0.29
						c0.24-0.25,0.51-0.48,0.78-0.7c0.72-0.58,1.49-1.1,2.27-1.59c0.97-0.62,1.96-1.21,2.97-1.76c0.13-0.07-0.03-0.59-0.08-0.57
						c-1.28,0.7-2.54,1.46-3.75,2.27c-0.81,0.54-2.96,1.67-2.79,2.88c0.22,1.57,5.7-0.62,6.63-0.95
						C536.86,366.95,536.73,366.4,536.66,366.43L536.66,366.43z"/>
				</g>
			</g>
		</g>
	</g>
	<g style="clip-path:url(#XMLID_00000177486047517198167070000015974545394561059972_);">
		<g>
			<path class="st4" d="M750.8,531.99c0,0,5.04,42.46,1.44,43.06c-2.92,0.49-0.91-1.62-2.24-8.77s-13.13-28.58-13.13-28.58
				s-2.26-3.32,1.27-5.17C741.66,530.68,750.62,527.75,750.8,531.99z"/>
			<path class="st4" d="M761.45,535.18c0,0,3.91,11.11,9.42,12.18c5.51,1.07,18.12-14.13,26.55-13.49c2.32,0.18,2.11-2.36,0.18-2.27
				c-0.52,0.02-1.53-0.11-4.92,0.73c-7.66,1.89-19.27,8.46-18.92,5.31C775.18,525.25,762.98,527.95,761.45,535.18z"/>
		</g>
		<g>
			<path class="st14" d="M703.55,422.99c-1.72-2.22-18.32-23.42-31.01-29.56c-1.47-0.71-2.1-2.47-1.41-3.94l1.21-2.56
				c0.87-1.84,3.3-2.29,4.76-0.86c7.71,7.54,28.21,26.04,32.83,14.62c4.14-10.26,0.06-21.55-2.5-26.98
				c-0.8-1.71,0.15-3.73,1.98-4.17l0,0c1.69-0.41,5.29,1.09,5.56,2.81c1.4,8.97,4.57,32.89,17.83,25.06
				c13.12-7.75,10.76-33.05,9.41-42.3c-0.26-1.8,1.15-3.41,2.97-3.39l1.28,0.01c1.94,0.02,3.34,1.86,2.84,3.73
				c-2.76,10.45-3.22,39.77,10.08,42.62c11.99,2.57,14.25-7.65,17.73-13.1c1.03-1.61,3.28-1.84,4.62-0.48l1.99,2.03
				c1.28,1.3,1.1,3.42-0.38,4.49c-7.22,5.2-25.1,20.44-19.41,40.35c6.78,23.72,19.83,54.52,21.73,59.08
				c0.08,0.19,6.3,14.27,6.42,14.44c1.15,1.66,9.22,16.8,0.29,23.78c-7.87,6.14-70.4,22.11-78.3,3.62
				c-2.97-6.94,0.13-21.43,1.66-26.53c2.36-7.82,3.7-54.22-11.93-82.36C703.74,423.25,703.65,423.12,703.55,422.99z"/>
			<path class="st14" d="M751.27,540.09c-14.44,1.82-22.79,0.64-26.86-0.41c-5.43-1.4-8.94-3.87-10.43-7.36
				c-3.04-7.12,0.26-21.97,1.66-26.61c1.12-3.71,2.14-16.93,0.78-33.52c-2.06-25.12-8.04-40.38-12.69-48.76
				c-0.07-0.13-0.16-0.26-0.25-0.38l0,0c-1.84-2.38-18.34-23.41-30.97-29.53c-1.52-0.74-2.17-2.57-1.46-4.09l1.21-2.57
				c0.43-0.91,1.25-1.54,2.24-1.72c0.99-0.18,1.97,0.12,2.69,0.83c6.11,5.98,21.17,19.7,28.86,18.09c1.75-0.37,3.02-1.52,3.8-3.43
				c4.09-10.11,0.19-21.19-2.49-26.9c-0.4-0.85-0.4-1.82,0.01-2.66c0.4-0.84,1.15-1.44,2.05-1.66c1.07-0.26,2.96,0.23,4.28,1.12
				c0.57,0.38,1.28,1,1.4,1.77l0.15,0.98c1.09,7.07,3.36,21.8,9.97,24.93c2.2,1.04,4.73,0.73,7.54-0.93
				c5.62-3.32,9.01-10.21,10.08-20.5c0.89-8.5-0.07-17.24-0.72-21.69c-0.13-0.89,0.13-1.78,0.72-2.46c0.59-0.68,1.45-1.06,2.35-1.05
				l1.28,0.01c0.96,0.01,1.84,0.45,2.41,1.21c0.58,0.76,0.77,1.73,0.53,2.66c-2.13,8.07-2.94,27.36,3.03,37.08
				c1.84,2.99,4.18,4.81,6.97,5.41c9.7,2.08,12.91-4.16,15.75-9.66c0.63-1.23,1.23-2.39,1.87-3.39c0.51-0.79,1.34-1.3,2.27-1.4
				c0.94-0.1,1.85,0.23,2.51,0.9l1.99,2.03c0.63,0.64,0.95,1.52,0.87,2.42c-0.08,0.89-0.54,1.71-1.27,2.23
				c-3.4,2.45-9.81,7.61-14.52,14.63c-5.66,8.44-7.29,17.05-4.85,25.6c4.23,14.79,11.62,34.94,21.39,58.27l0.33,0.8
				c0.05,0.12,6.24,14.14,6.41,14.42c0.7,1,2.93,5.23,3.94,9.93c1.34,6.23,0.07,11.07-3.68,13.99c-2.9,2.26-13.97,6.28-28.77,9.28
				C759.11,538.95,754.99,539.62,751.27,540.09z M674.69,385.35c-0.05,0.01-0.1,0.01-0.15,0.02c-0.92,0.17-1.68,0.75-2.08,1.6
				l-1.21,2.56c-0.67,1.41-0.06,3.12,1.36,3.8c12.68,6.14,29.2,27.21,31.04,29.59l0,0c0.1,0.13,0.19,0.26,0.27,0.41
				c4.66,8.4,10.65,23.68,12.72,48.85c1.36,16.61,0.34,29.87-0.78,33.6c-1.39,4.62-4.69,19.4-1.67,26.46
				c1.46,3.42,4.92,5.85,10.29,7.24c5.1,1.31,16.96,2.84,39.17-1.66c14.24-2.88,25.77-6.96,28.69-9.24
				c4.64-3.63,4.52-9.49,3.6-13.78c-1.09-5.06-3.48-9.24-3.91-9.86c-0.14-0.2-6.38-14.33-6.43-14.46l-0.33-0.8
				c-9.77-23.33-17.17-43.49-21.4-58.29c-2.46-8.61-0.82-17.29,4.88-25.78c4.73-7.05,11.16-12.23,14.57-14.69
				c0.68-0.49,1.11-1.25,1.18-2.08c0.07-0.83-0.23-1.65-0.81-2.25l-1.99-2.03c-0.62-0.63-1.47-0.93-2.34-0.84
				c-0.87,0.09-1.64,0.57-2.11,1.31c-0.64,1-1.23,2.15-1.86,3.38c-2.19,4.24-4.8,9.32-10.83,10.08c-1.49,0.19-3.2,0.11-5.16-0.31
				c-2.84-0.61-5.23-2.46-7.1-5.5c-6-9.77-5.2-29.15-3.06-37.25c0.23-0.86,0.05-1.76-0.49-2.47c-0.54-0.71-1.36-1.12-2.25-1.13
				l-1.28-0.01c-0.84-0.01-1.64,0.35-2.19,0.98c-0.55,0.63-0.8,1.46-0.67,2.29c0.65,4.46,1.61,13.21,0.73,21.74
				c-1.08,10.36-4.51,17.31-10.18,20.66c-2.87,1.7-5.48,2.01-7.74,0.94c-6.72-3.18-9-17.98-10.09-25.09l-0.15-0.98
				c-0.08-0.54-0.55-1.12-1.31-1.63c-1.28-0.86-3.09-1.34-4.12-1.09c-0.84,0.2-1.53,0.76-1.91,1.54c-0.38,0.78-0.38,1.69-0.01,2.48
				c2.7,5.74,6.61,16.88,2.5,27.07c-0.8,1.98-2.13,3.18-3.95,3.56c-3.37,0.71-8.45-1.36-15.08-6.15
				c-5.37-3.88-10.56-8.66-13.97-11.99C676.4,385.52,675.56,385.24,674.69,385.35z"/>
		</g>
		<path class="st5" d="M812.91,353.98c-0.35-0.25-0.73-0.36-1.11-0.55c-0.07-0.04-0.12-0.05-0.16-0.05c0,0,0,0,0,0
			c0-0.42,0.34-0.98,0.4-1.42c0.21-1.53-0.42-2.91-1.73-3.75c-0.14-0.09-0.8-0.35-0.81-0.37c-0.05-0.1,0.08-0.54,0.09-0.66
			c0.02-0.65-0.17-1.29-0.59-1.79c-0.29-0.36-0.83-0.48-1.1-0.77c-0.07-0.08-0.08-0.27-0.14-0.37c-0.28-0.48-0.48-0.97-0.86-1.39
			c-0.87-0.94-2-0.94-3.03-0.49c-0.07-0.89-0.38-1.79-0.89-2.52c-1.24-1.76-3.43-1.94-5.4-1.66c-0.41-1.54-1.65-3.15-3.35-3.16
			c-1.4-0.01-2.58,1.04-3.33,2.2c-0.98-0.56-2.11-0.63-3.08-0.16c-0.46-0.29-1.01-0.36-1.41-0.69c-0.47-0.39-0.75-0.95-1.29-1.3
			c-0.01-0.01-0.02-0.01-0.03-0.02c0.59-1.09,0.79-2.35,0.5-3.58c-0.15-0.65-0.39-1.06-0.36-1.71c0.02-0.51-0.05-1.04-0.27-1.5
			c-0.5-1.07-1.66-1.52-2.79-1.69c0.13-0.83,0.04-1.73-0.27-2.5c-0.56-1.36-1.85-2.01-3.2-2.33c-0.03-1.45-1.14-2.32-2.42-2.7
			c-1.06-1.56-3.02-2.51-4.58-1.53c-0.35-0.75-0.88-1.43-1.52-1.92c-1.69-1.26-3.79-1.16-5.66-0.47c-0.86-1.23-2.3-2.11-3.8-2.13
			c-1.68-0.02-2.59,1.67-2.93,3.13c-1.4-0.44-2.94-0.29-3.68,1.16c-1.16-0.13-2.4,0.16-3.4,0.73c-0.03,0.02-0.06,0.04-0.1,0.06
			c-0.98-1.39-2.68-2.08-4.54-2.24c0.21-1.25,0.12-2.59-0.22-3.79c-0.79-2.79-3.16-4.3-5.89-4.79c-0.02-0.98-0.37-2-0.92-2.79
			c-0.54-0.78-1.32-1.34-2.2-1.68c-0.31-0.12-0.65-0.16-0.95-0.28c-0.11-0.05-0.18-0.06-0.22-0.07c-0.06-0.09-0.12-0.21-0.17-0.28
			c-0.83-1.14-1.94-2.23-3.29-2.71c-1.61-0.57-3.09,0.03-4.25,1.1c-0.49-1.42-1.36-2.76-2.44-3.75c-2.9-2.63-6.83-2.11-10.16-0.67
			c-1.37-2.37-4.15-4.6-7-3.94c-2.38,0.55-3.77,3.14-4.37,5.42c-2.42-0.87-5.1-0.35-6.4,2.01c-1.69-0.16-3.49,0.22-5.01,0.89
			c-4.08,1.82-6.15,5.94-7.08,10.1c-1.87-0.07-3.86,0.38-5.53,1.16c-3.96,1.85-5.68,5.73-5.9,9.92c-2.33,1.33-4.03,3.83-3.98,6.55
			c0.01,0.72,0.1,1.45,0.3,2.15c-1.78,0.46-2.77,1.67-2.41,3.32c-0.83-0.06-1.71,0.07-2.46,0.37c-2.07,0.84-2.78,2.94-2.91,5
			c-1.53,0.15-3.28,1-3.72,2.54c-0.41,1.4,0.56,2.79,1.6,3.74c-1.04,1.05-1.32,2.47-0.53,3.74c-0.53,0.87-0.78,1.96-0.79,2.95
			c0,0.42,0.04,0.82,0.12,1.21c0.01,0.23,0.02,0.45,0.04,0.67c-1.09-0.07-2.26,0.11-3.19,0.64c-0.85,0.48-1.41,1.26-1.66,2.2
			c-0.17,0.67,0.22,0.46-0.32,0.67c-0.95,0.37-1.86,0.64-2.73,1.2c-1.34,0.87-2.43,2.09-3.14,3.52c-1.24,2.47-1.35,5.3-1.05,8
			c-2.77,0.72-5.44,2.77-6.54,5.42c-0.51,1.22-0.7,2.55-0.64,3.87c0.03,0.69,0.13,1.38,0.27,2.06c0.05,0.22,0.07,0.5,0.17,0.71
			c-0.01-0.02,0.18,0.43,0.22,0.38c-0.03,0.07-0.17,0.14-0.2,0.21c-0.2,0.38-0.56,0.7-0.78,1.08c-0.35,0.57-0.62,1.19-0.8,1.83
			c-0.45,1.61-0.16,3.18,0.59,4.65c1.39,2.74,3.96,3.44,6.68,3c-1.04,2.47-0.91,5.48,0.72,7.66c2.78,3.72,8.68,5.49,12.56,2.52
			c0.82-0.62,1.59-1.43,2.15-2.32c0.47,0.48,1.03,0.87,1.64,1.1c1.79,0.66,3.2-0.49,4.2-1.86c0.96,0.83,2.14,1.47,3.34,1.8
			c2.91,0.81,5.36-0.64,7.16-2.84c0.75,0.54,1.63,0.96,2.51,1.16c2.03,0.47,3.64-0.47,4.73-2.14c4.43,0.76,9.48-0.68,10.86-5.34
			c4.36,0.35,9.22-1.55,9.92-6.34c0.41-2.79-0.42-5.68-1.41-8.28c1.05-0.32,2.03-1.03,2.69-1.88c0.68-0.87,1.03-1.95,1.1-3.05
			c0.03-0.4,0.02-0.81-0.02-1.21c-0.02-0.23-0.18-0.63-0.15-0.83c0.02-0.18,0.22-0.44,0.29-0.61c0-0.01,0.01-0.02,0.01-0.03
			c0.31,1.25,1.04,2.4,2.01,3.37c2.49,2.47,6.14,2.71,8.84,0.66c0.23,0.55,0.62,1.07,1.12,1.37c1.1,0.67,2.36,0.15,3.36-0.52
			c0.52,0.93,1.32,1.78,2.22,2.3c1.92,1.12,4.01,0.57,5.79-0.49c0.46,0.67,1.09,1.26,1.8,1.62c1.33,0.67,2.7,0.27,3.83-0.54
			c3.17,1.63,7.15,1.62,9.48-1.25c1.64,0.66,3.6,0.9,5.3,0.48c0.89-0.22,1.62-0.59,2.22-1.08c-0.09,0.46-0.13,0.93-0.11,1.4
			c0.07,1.46,0.79,2.75,1.75,3.82c0.16,0.65,0.49,1.27,0.9,1.78c0.89,1.1,2.07,1.28,3.35,0.95c0.21,0.61,0.53,1.19,0.9,1.69
			c1.05,1.42,2.52,1.87,4.2,1.58c0.17,0.28,0.37,0.55,0.59,0.79c0.29,0.31,0.62,0.57,1.01,0.74c0.25,0.11,0.51,0.17,0.79,0.2
			c0.26,0.02,0.68-0.14,0.91-0.09c0.21,0.05,0.49,0.32,0.69,0.42c0.39,0.2,0.8,0.37,1.23,0.45c1.25,0.23,2.05-0.48,2.49-1.56
			c0.53,0.63,1.19,1.17,1.93,1.52c2.15,1.02,4.19-0.12,5.73-1.66c1.16,0.96,3.1,1.71,4.45,0.75c0.72-0.51,0.97-1.44,1.04-2.27
			c0.02-0.25-0.18-1.46-0.05-1.62c-0.15,0.18,1.07,0.01,1.23-0.03c0.75-0.19,1.38-0.64,1.66-1.38c0.08-0.22,0.07-0.69,0.19-0.81
			c0.06-0.06,0.26-0.06,0.34-0.1c0.4-0.2,0.81-0.33,1.19-0.58c1.24-0.79,2.09-2.03,2.47-3.44c0.28-1.06,0.31-2.19,0.2-3.28
			c-0.08-0.76-0.31-0.77,0.31-1.02c1.78-0.72,3-2.02,3.53-3.61c1.07,0.62,2.31,1.02,3.51,1.01c3.5-0.04,5.08-3.33,5.81-6.32
			c0.61,0.06,1.25-0.03,1.81-0.22c0.66-0.23,1.24-0.62,1.71-1.14c0.33-0.37,0.52-0.79,0.79-1.2c0.03-0.04-0.14-0.06-0.1-0.12
			c0.05-0.07,0.18-0.08,0.24-0.14c0.27-0.27,0.65-0.46,0.93-0.73c0.51-0.48,0.93-1.05,1.23-1.68c0.35-0.75,0.5-1.55,0.46-2.37
			c-0.02-0.56-0.12-0.79,0.05-1.29C814.22,356.03,813.97,354.74,812.91,353.98z"/>
		<g>
			<g>
				<path class="st8" d="M725.85,413.92c0,0-1.29-0.73-1.64,1.46c-0.35,2.19-0.29,7.64,1.1,7.51c1.39-0.13,1.28-4.71,1.28-4.71
					S726.45,414.24,725.85,413.92z"/>
				<g>
					<path class="st2" d="M713.83,409.02c1.48,3.29,4.79,7.76,8.88,5.8c0.78-0.37,0.45-1.22-0.34-0.85c-3.27,1.56-6.1-3-7.22-5.49
						C714.89,407.91,713.58,408.45,713.83,409.02L713.83,409.02z"/>
				</g>
				<g>
					<path class="st2" d="M715.1,404.61c0.85,4.12,3.22,10.35,8.32,10.13c0.7-0.03,1.26-1.13,0.33-1.09
						c-4.47,0.19-6.59-5.99-7.28-9.31C716.32,403.61,714.97,403.98,715.1,404.61L715.1,404.61z"/>
				</g>
				<g>
					<path class="st2" d="M718.11,402.38c-0.08,4.59,1.08,11.93,6.77,12.39c0.54,0.04,1.52-0.88,0.7-0.95
						c-5.24-0.42-6.18-7.58-6.11-11.75C719.48,401.44,718.12,401.82,718.11,402.38L718.11,402.38z"/>
				</g>
				<path class="st8" d="M746.9,410.21c0,0-1.29-0.73-1.64,1.46c-0.35,2.19-0.29,7.64,1.1,7.51c1.39-0.13,1.28-4.71,1.28-4.71
					S747.5,410.54,746.9,410.21z"/>
				<g>
					<path class="st2" d="M734.89,405.31c1.48,3.29,4.79,7.76,8.88,5.8c0.78-0.37,0.45-1.22-0.34-0.85c-3.27,1.56-6.1-3-7.22-5.49
						C735.94,404.21,734.63,404.75,734.89,405.31L734.89,405.31z"/>
				</g>
				<g>
					<path class="st2" d="M736.15,400.9c0.85,4.12,3.22,10.35,8.32,10.13c0.7-0.03,1.26-1.13,0.33-1.09
						c-4.47,0.19-6.59-5.99-7.28-9.31C737.37,399.91,736.02,400.27,736.15,400.9L736.15,400.9z"/>
				</g>
				<g>
					<path class="st2" d="M739.16,398.68c-0.08,4.59,1.08,11.93,6.77,12.39c0.54,0.04,1.52-0.88,0.7-0.95
						c-5.24-0.42-6.18-7.58-6.11-11.75C740.53,397.74,739.17,398.12,739.16,398.68L739.16,398.68z"/>
				</g>
			</g>
			<g>
				<g>
					<path class="st2" d="M769.18,477.84c0.93,0.6,1.84,1.24,2.73,1.91c0.7,0.52,1.39,1.06,2.02,1.66c0.24,0.24,0.95,0.82,0.84,1.23
						c-0.02,0.07-0.29,0.05-0.56,0.02c-0.48-0.04-0.95-0.16-1.41-0.28c-0.95-0.25-1.88-0.57-2.79-0.91c-1.17-0.43-2.34-0.9-3.48-1.4
						c-0.15-0.07-0.62,0.25-0.55,0.27c1.49,0.66,3.02,1.26,4.57,1.79c1.07,0.36,3.47,1.44,4.57,0.59c1.21-0.94-4.59-4.64-5.38-5.16
						C769.61,477.48,769.11,477.79,769.18,477.84L769.18,477.84z"/>
				</g>
				<g>
					<path class="st2" d="M728.74,483.89c0.93,0.6,1.84,1.24,2.73,1.91c0.7,0.52,1.39,1.06,2.02,1.66c0.24,0.24,0.95,0.82,0.84,1.23
						c-0.02,0.07-0.29,0.05-0.56,0.02c-0.48-0.04-0.95-0.16-1.41-0.28c-0.95-0.25-1.88-0.57-2.79-0.91c-1.17-0.43-2.34-0.9-3.48-1.4
						c-0.15-0.07-0.62,0.25-0.55,0.27c1.49,0.66,3.02,1.26,4.57,1.79c1.07,0.36,3.47,1.44,4.57,0.59c1.21-0.94-4.59-4.64-5.38-5.16
						C729.16,483.53,728.66,483.84,728.74,483.89L728.74,483.89z"/>
				</g>
			</g>
		</g>
	</g>
	<g style="clip-path:url(#XMLID_00000177486047517198167070000015974545394561059972_);">
		<g>
			<g>
				<path class="st15" d="M930.43,451.59c0,0-24.22-19.03-45.69-2.33c-21.47,16.69-33.03,45.97-47.34,63.38
					c-14.31,17.41-26.23,50.69,5.31,72.6c31.54,21.92,91.42,21.85,100.2-37.31C951.68,488.78,950.8,471.59,930.43,451.59z"/>
				<g>
					<path class="st15" d="M930.45,451.39c-2.38-1.86-5.09-3.38-7.79-4.7c-5.74-2.8-12.06-4.63-18.47-4.65
						c-3.84-0.01-7.66,0.65-11.25,2.02c-4.32,1.65-8.04,4.29-11.51,7.3c-7.97,6.91-14.43,15.39-20.24,24.14
						c-5.63,8.47-10.67,17.32-16.23,25.84c-2.49,3.82-5.11,7.55-8,11.09c-1.93,2.37-3.7,4.87-5.3,7.47
						c-3.46,5.63-6.18,11.77-7.76,18.19c-1.64,6.63-2.01,13.6-0.57,20.3c1.58,7.33,5.34,13.95,10.44,19.41
						c5.13,5.49,11.49,9.8,18.22,13.11c5.99,2.95,12.37,5.11,18.91,6.48c6.63,1.38,13.45,1.95,20.21,1.52
						c6.69-0.42,13.33-1.83,19.53-4.41c6.25-2.61,11.98-6.41,16.71-11.26c5.29-5.42,9.23-12.02,11.9-19.08
						c3.59-9.47,4.64-19.6,5.99-29.57c1.27-9.35,2.42-18.73,3-28.16c0.42-6.88,0.56-13.82-0.22-20.68
						c-0.6-5.3-1.78-10.54-3.88-15.46c-1.99-4.68-4.79-8.97-8.06-12.86c-1.74-2.07-3.6-4.04-5.52-5.93
						c-0.41-0.4-0.64-0.18-0.23,0.23c3.8,3.74,7.33,7.78,10.12,12.34c2.62,4.3,4.48,9,5.62,13.9c1.36,5.83,1.76,11.84,1.77,17.81
						c0.01,7.96-0.68,15.91-1.54,23.81c-0.55,5.02-1.19,10.04-1.87,15.04c-0.73,5.37-1.39,10.79-2.38,16.12
						c-1.52,8.22-4.28,16.27-8.76,23.36c-7.36,11.65-19.06,19.52-32.42,22.59c-12.97,2.98-26.79,1.76-39.36-2.41
						c-13.81-4.57-27.76-13.14-34.38-26.56c-6.19-12.55-4.45-27.12,1.18-39.52c2.6-5.72,6.01-10.92,9.94-15.8
						c5.88-7.29,10.65-15.42,15.54-23.39c5.37-8.74,10.82-17.48,17.32-25.44c3.27-4,6.8-7.8,10.68-11.2
						c3.51-3.08,7.28-5.83,11.66-7.52c11.73-4.53,24.92-1.02,35.1,5.64c0.49,0.32,0.98,0.65,1.45,0.99
						c0.25,0.18,0.27,0.19,0.44,0.33C930.94,452.21,930.76,451.64,930.45,451.39z"/>
				</g>
			</g>
			<g>
				<path class="st16" d="M846.08,527.38c0,0-16.94,0.32-9.46,19.35C844.08,565.77,864.14,521.68,846.08,527.38z"/>
				<path class="st16" d="M932.02,472l-0.97-0.67c-25.13-11.96-2.56,36.64,9.94,23.02C953.48,480.74,932.02,472,932.02,472z"/>
				<path class="st16" d="M907.74,555.92c0,0-8.32-4.68-11.23,4.62S915.65,564.11,907.74,555.92z"/>
			</g>
		</g>
		<g>
			<path class="st17" d="M874.36,583.66c0,0,6.73,12.67,0.01,18.97c-6.72,6.3-19.39,1.44-23.76-0.01c-0.42-0.14-1.38-0.79-2.85-0.34
				c-0.67,0.21-1.42,0.25-1.91,0.77c-0.27,0.28-1.32,0.42-1.06-0.62c0.48-1.96,5.03-2.52,6.2-3.22c1.17-0.7,6.89-5.03,9.61-9.3
				C863.32,585.65,874.36,583.66,874.36,583.66z"/>
			<path class="st4" d="M857.59,578.08c-3.21,1.61-5.38,4.87-5.54,8.51c-0.14,3.18,1.2,6.87,7.12,8.91
				c11.86,4.09,20.44-8.49,20.63-5.4c0.19,3.09-0.13,17.5,2.65,19.51c1.37,0.99,2.33,0.01,1.46-0.79c-1.07-0.99-1.79-0.41-0.76-5.85
				c1.63-8.64,11.83-21.19-1.04-25.13C869.57,574,861.75,575.99,857.59,578.08z"/>
		</g>
		<g>
			<path class="st8" d="M879.45,523.32c0,0-0.74-1.15-1.96,0.48c-1.22,1.63-3.53,6.09-2.34,6.58c1.19,0.49,3.07-3.28,3.07-3.28
				S879.79,523.84,879.45,523.32z"/>
			<g>
				<path class="st2" d="M871.79,514.16c-0.21,3.31,0.55,8.37,4.72,8.54c0.79,0.03,0.89-0.8,0.08-0.84
					c-3.33-0.14-3.66-5.06-3.5-7.57C873.13,513.72,871.83,513.6,871.79,514.16L871.79,514.16z"/>
			</g>
			<g>
				<path class="st2" d="M874.72,511.12c-1.09,3.72-1.84,9.8,2.39,11.82c0.58,0.28,1.51-0.38,0.74-0.74
					c-3.72-1.77-2.78-7.71-1.9-10.7C876.14,510.84,874.89,510.56,874.72,511.12L874.72,511.12z"/>
			</g>
			<g>
				<path class="st2" d="M878.12,510.61c-2.04,3.69-4.26,10.16,0.16,12.98c0.42,0.27,1.62-0.06,0.97-0.47
					c-4.07-2.6-1.76-8.82,0.09-12.18C879.64,510.44,878.37,510.16,878.12,510.61L878.12,510.61z"/>
			</g>
			<path class="st8" d="M898.15,529.38c0,0-0.74-1.15-1.96,0.48c-1.22,1.63-3.53,6.09-2.34,6.58c1.19,0.49,3.07-3.28,3.07-3.28
				S898.5,529.9,898.15,529.38z"/>
			<g>
				<path class="st2" d="M890.5,520.22c-0.21,3.31,0.55,8.37,4.72,8.54c0.79,0.03,0.89-0.8,0.08-0.84c-3.33-0.14-3.66-5.06-3.5-7.57
					C891.83,519.78,890.53,519.66,890.5,520.22L890.5,520.22z"/>
			</g>
			<g>
				<path class="st2" d="M893.42,517.18c-1.09,3.72-1.84,9.8,2.39,11.82c0.58,0.28,1.51-0.38,0.74-0.74
					c-3.72-1.77-2.78-7.71-1.9-10.7C894.84,516.9,893.59,516.61,893.42,517.18L893.42,517.18z"/>
			</g>
			<g>
				<path class="st2" d="M896.83,516.67c-2.04,3.69-4.26,10.16,0.16,12.98c0.42,0.27,1.62-0.06,0.97-0.47
					c-4.07-2.6-1.76-8.82,0.09-12.18C898.34,516.5,897.08,516.22,896.83,516.67L896.83,516.67z"/>
			</g>
			<g>
				<path class="st2" d="M860.37,553.83c0.45,0.97,0.87,1.97,1.25,2.97c0.15,0.39,1.35,3.14,0.78,3.47
					c-0.55,0.31-2.84-2.82-3.16-3.24c-0.7-0.91-1.38-1.84-2.03-2.79c-0.08-0.12-0.61-0.08-0.57-0.02c0.84,1.25,1.74,2.46,2.69,3.63
					c0.65,0.8,2,2.84,3.28,2.66c1.43-0.2-1.29-5.83-1.67-6.66C860.88,553.72,860.33,553.74,860.37,553.83L860.37,553.83z"/>
			</g>
			<g>
				<path class="st2" d="M878.59,575.87c-0.78,0.34-6.64,2.96-5.67,3.85c0.35,0.32,1.17,0.27,1.6,0.26c0.92-0.01,1.85-0.14,2.75-0.3
					c1.46-0.24,2.92-0.56,4.36-0.93c0.12-0.03-0.37-0.16-0.5-0.13c-0.91,0.23-7.85,1.85-7.8,0.81c0.02-0.39,0.77-0.81,1.05-1
					c0.6-0.41,1.25-0.75,1.89-1.09c0.92-0.48,1.86-0.93,2.81-1.35C879.22,575.94,878.71,575.82,878.59,575.87L878.59,575.87z"/>
			</g>
		</g>
	</g>
</g>
</svg>
