<?xml version="1.0" encoding="utf-8"?>
<!-- Generator: Adobe Illustrator 25.4.1, SVG Export Plug-In . SVG Version: 6.00 Build 0)  -->
<svg version="1.1" id="Ebene_1" xmlns="http://www.w3.org/2000/svg" xmlns:xlink="http://www.w3.org/1999/xlink" x="0px" y="0px"
	 viewBox="0 0 200 200" style="enable-background:new 0 0 200 200;" xml:space="preserve">
<style type="text/css">
	.st0{fill:#DAA86F;}
	.st1{fill:#F8CF50;}
	.st2{opacity:0.5;}
	.st3{fill:#BD941E;}
	.st4{fill:#020203;}
	.st5{fill:#FFFFFF;}
</style>
<g>
	<path class="st0" d="M100.54,140.69c0,0,12.53,13.53,9.99,21.94c-2.54,8.41-32.78,14.78-38.04,26.93c-1.45,3.34-4.8,1.2-3.28-1.4
		c0.42-0.71,0.96-2.2,4.6-6.29c8.21-9.23,25.77-20.52,21.16-22.32C76.76,152.47,89.41,137.55,100.54,140.69z"/>
	<path class="st0" d="M141.34,140.79c0,0,12.09,9.93,10.93,17.29c-1.17,7.36-25.85,16.2-28.88,27.02c-0.83,2.98-3.89,1.56-2.92-0.8
		c0.27-0.64,0.55-1.96,3.14-5.81c5.84-8.7,19.3-20.22,15.21-21.2C122.71,153.42,131.62,139.43,141.34,140.79z"/>
</g>
<g>
	<g>
		<path class="st1" d="M117.38,19.01c9.19,0.29,42.72,19.48,49.82,61.07c9.82,57.58-35.05,65.74-39.38,74.36
			c-3.87,7.72-4.71,6.81-6.64,7.41c-6.26,1.93-7.71-4.14-14.14-3.63c-6.43,0.52-65.74,0.87-70.39-49.83
			c-4.65-50.7,0.17-67.23,35.82-82.85c0,0,4.1-1.94,5.7-5.71c1.6-3.77,5.9-11.19,13.12-10.98c7.21,0.21,8.06,1.25,13.77,5.76
			C110.76,19.13,117.38,19.01,117.38,19.01z"/>
		<path class="st1" d="M123.31,161.32c-0.47,0.28-0.9,0.37-1.37,0.48c-0.23,0.05-0.47,0.1-0.73,0.18c-3.38,1.04-5.37-0.21-7.48-1.53
			c-1.83-1.15-3.72-2.33-6.69-2.09c-0.17,0.01-17.79,1.2-35.92-5.72c-9.29-3.54-16.87-8.56-22.52-14.91
			c-6.95-7.8-11.02-17.67-12.09-29.32C34.3,84.32,34,66.78,39.31,53.77c4.9-11.98,14.49-20.19,33.09-28.34
			c0.04-0.02,4.08-1.97,5.63-5.64c1.12-2.65,5.4-11.28,13.24-11.06c6.8,0.2,7.95,1.11,12.81,4.97c0.33,0.26,0.67,0.53,1.03,0.82
			c5.61,4.43,12.18,4.36,12.24,4.36h0.01c5.07,0.16,15.83,5.5,25.78,15.08c8.9,8.57,20.31,23.52,24.16,46.1
			c1.76,10.31,1.86,19.74,0.3,28.03c-1.34,7.11-3.94,13.59-7.74,19.27c-6.94,10.38-16.51,16.27-23.5,20.57
			c-4.16,2.56-7.45,4.59-8.45,6.58C125.61,159.15,124.36,160.7,123.31,161.32z M59.76,32.11c-10.45,6.21-16.6,12.96-20.2,21.77
			c-5.3,12.96-4.99,30.47-2.79,54.52c1.06,11.59,5.11,21.41,12.02,29.17c5.63,6.32,13.17,11.31,22.42,14.84
			c18.07,6.89,35.63,5.72,35.8,5.7c3.06-0.25,4.98,0.96,6.85,2.13c2.06,1.29,4,2.51,7.27,1.5c0.27-0.08,0.52-0.14,0.75-0.19
			c1.45-0.32,2.5-0.55,5.81-7.15c1.03-2.05,4.35-4.1,8.54-6.68c6.97-4.29,16.5-10.16,23.42-20.49c3.78-5.65,6.37-12.09,7.7-19.17
			c1.56-8.26,1.46-17.66-0.3-27.94c-3.84-22.51-15.22-37.41-24.09-45.96c-11.11-10.7-21.6-14.88-25.6-15.01
			c-0.19,0-6.78,0.02-12.4-4.42c-0.36-0.29-0.71-0.56-1.03-0.82c-4.8-3.81-5.95-4.72-12.66-4.91c-7.68-0.22-11.89,8.28-12.99,10.9
			c-1.6,3.77-5.73,5.76-5.77,5.78C67.67,27.79,63.45,29.91,59.76,32.11z"/>
	</g>
	<g class="st2">
		<g>
			<path class="st3" d="M84.74,77.72c0.18,0.31,0.08,0.71-0.23,0.89c-0.31,0.18-0.71,0.08-0.89-0.23c-0.18-0.31-0.08-0.71,0.23-0.89
				C84.16,77.31,84.56,77.41,84.74,77.72z"/>
			<g>
				<path class="st3" d="M84.32,77.97c0.1,0.18-0.17,0.34-0.27,0.16C83.94,77.95,84.21,77.79,84.32,77.97
					c0.35,0.52,1.19,0.02,0.84-0.5c-0.34-0.51-1.01-0.73-1.56-0.4c-0.54,0.32-0.71,1.03-0.4,1.56c0.31,0.53,1,0.7,1.53,0.41
					c0.58-0.32,0.72-1.02,0.43-1.58C84.87,76.91,84.03,77.41,84.32,77.97z"/>
			</g>
		</g>
		<g>
			<path class="st3" d="M85.72,72.04c0.18,0.31,0.08,0.71-0.23,0.89c-0.31,0.18-0.71,0.08-0.89-0.23c-0.18-0.31-0.08-0.71,0.23-0.89
				C85.13,71.63,85.53,71.73,85.72,72.04z"/>
			<g>
				<path class="st3" d="M85.29,72.29c0.1,0.18-0.17,0.34-0.27,0.16C84.91,72.27,85.18,72.12,85.29,72.29
					c0.35,0.52,1.19,0.02,0.84-0.5c-0.34-0.51-1.01-0.73-1.56-0.4c-0.54,0.32-0.71,1.03-0.4,1.56c0.31,0.53,1,0.7,1.53,0.41
					c0.58-0.32,0.72-1.02,0.43-1.58C85.84,71.23,85,71.73,85.29,72.29z"/>
			</g>
		</g>
		<g>
			<path class="st3" d="M79.31,72.87c0.17,0.29,0.08,0.66-0.21,0.83c-0.29,0.17-0.66,0.08-0.83-0.21c-0.17-0.29-0.08-0.66,0.21-0.83
				C78.77,72.48,79.14,72.58,79.31,72.87z"/>
			<g>
				<path class="st3" d="M78.89,73.12c0.07,0.14-0.12,0.25-0.2,0.12C78.61,73.1,78.81,72.99,78.89,73.12
					c0.35,0.52,1.19,0.02,0.84-0.5c-0.33-0.5-0.97-0.7-1.51-0.38c-0.52,0.31-0.68,0.99-0.38,1.51c0.3,0.51,0.97,0.67,1.48,0.4
					c0.56-0.3,0.69-0.99,0.41-1.52C79.44,72.06,78.6,72.56,78.89,73.12z"/>
			</g>
		</g>
		<g>
			<path class="st3" d="M80.37,66.05c0.18,0.31,0.08,0.71-0.23,0.89c-0.31,0.18-0.71,0.08-0.89-0.23c-0.18-0.31-0.08-0.71,0.23-0.89
				C79.79,65.64,80.18,65.75,80.37,66.05z"/>
			<g>
				<path class="st3" d="M79.95,66.3c0.1,0.18-0.17,0.34-0.27,0.16C79.56,66.29,79.83,66.13,79.95,66.3
					c0.35,0.52,1.19,0.02,0.84-0.5c-0.34-0.51-1.01-0.73-1.56-0.4c-0.54,0.32-0.71,1.03-0.4,1.56c0.31,0.53,1,0.7,1.53,0.41
					c0.58-0.32,0.72-1.02,0.43-1.58C80.5,65.24,79.65,65.75,79.95,66.3z"/>
			</g>
		</g>
		<g>
			<path class="st3" d="M92.91,61.58c0.19,0.33,0.09,0.75-0.24,0.95c-0.33,0.19-0.75,0.09-0.95-0.24c-0.19-0.33-0.09-0.75,0.24-0.95
				C92.3,61.14,92.72,61.25,92.91,61.58z"/>
			<g>
				<path class="st3" d="M92.49,61.83c0.12,0.23-0.21,0.43-0.34,0.2C92.01,61.81,92.35,61.61,92.49,61.83
					c0.35,0.52,1.19,0.02,0.84-0.5c-0.36-0.53-1.04-0.75-1.62-0.41c-0.55,0.33-0.73,1.06-0.41,1.62c0.32,0.54,1.04,0.73,1.58,0.43
					c0.6-0.33,0.75-1.06,0.45-1.63C93.04,60.77,92.2,61.27,92.49,61.83z"/>
			</g>
		</g>
		<g>
			<path class="st3" d="M97.53,69.98c0.17,0.29,0.08,0.66-0.21,0.83c-0.29,0.17-0.66,0.08-0.83-0.21c-0.17-0.29-0.08-0.66,0.21-0.83
				C96.98,69.6,97.36,69.69,97.53,69.98z"/>
			<g>
				<path class="st3" d="M97.11,70.23c0.07,0.14-0.12,0.25-0.2,0.12C96.82,70.22,97.02,70.1,97.11,70.23
					c0.35,0.52,1.19,0.02,0.84-0.5c-0.33-0.5-0.97-0.7-1.51-0.38c-0.52,0.31-0.68,0.99-0.38,1.51c0.3,0.51,0.97,0.67,1.48,0.4
					c0.56-0.3,0.69-0.99,0.41-1.52C97.66,69.17,96.81,69.67,97.11,70.23z"/>
			</g>
		</g>
		<g>
			<path class="st3" d="M95.57,84.65c0.26,0.44,0.12,1.02-0.33,1.28c-0.44,0.26-1.02,0.12-1.28-0.33c-0.26-0.44-0.12-1.02,0.33-1.28
				C94.73,84.06,95.31,84.21,95.57,84.65z"/>
			<g>
				<path class="st3" d="M95.15,84.9c0.26,0.51-0.47,0.95-0.76,0.45C94.09,84.86,94.83,84.43,95.15,84.9
					c0.35,0.52,1.19,0.02,0.84-0.5c-0.43-0.64-1.26-0.91-1.95-0.5c-0.67,0.4-0.89,1.28-0.5,1.95c0.38,0.65,1.25,0.88,1.91,0.52
					c0.73-0.39,0.91-1.27,0.54-1.97C95.7,83.84,94.86,84.34,95.15,84.9z"/>
			</g>
		</g>
		<g>
			<path class="st3" d="M85.49,86.76c0.13,0.21,0.06,0.49-0.16,0.61c-0.21,0.13-0.49,0.06-0.61-0.16c-0.13-0.21-0.06-0.49,0.16-0.61
				C85.09,86.48,85.36,86.55,85.49,86.76z"/>
			<g>
				<path class="st3" d="M85.07,87.01c-0.02-0.04-0.01-0.03,0,0.01c0-0.02,0.01-0.1-0.01-0.04c-0.01,0.05,0.01-0.01,0.02-0.02
					c0.02-0.03-0.06,0.04,0,0c0.04-0.02,0.03-0.01-0.01,0c0.02,0,0.1,0.01,0.05-0.01c-0.05-0.01,0.01,0.01,0.02,0.02
					c0.04,0.03-0.04-0.08,0,0c0.02,0.04,0.01,0.02,0-0.01c0.01,0.02,0,0.04,0,0.07c0.02-0.14-0.01,0.02-0.01,0
					c0,0.02,0.03-0.02,0.01-0.01c-0.05,0.03-0.06,0.02,0,0.01c-0.03,0-0.04,0-0.07,0C85.13,87.04,85.11,87.05,85.07,87.01
					C85.03,86.99,85.12,87.09,85.07,87.01c0.15,0.22,0.43,0.31,0.67,0.17c0.22-0.13,0.32-0.45,0.17-0.67
					c-0.28-0.42-0.83-0.6-1.28-0.33c-0.44,0.26-0.58,0.84-0.33,1.28c0.25,0.44,0.83,0.57,1.26,0.34c0.47-0.26,0.59-0.84,0.35-1.29
					c-0.12-0.23-0.45-0.3-0.67-0.17C85,86.48,84.95,86.78,85.07,87.01z"/>
			</g>
		</g>
		<g>
			<path class="st3" d="M77.12,82.53c0.23,0.39,0.1,0.88-0.28,1.11c-0.39,0.23-0.88,0.1-1.11-0.28c-0.23-0.39-0.1-0.88,0.28-1.11
				C76.39,82.02,76.89,82.14,77.12,82.53z"/>
			<g>
				<path class="st3" d="M76.7,82.78c0.19,0.37-0.34,0.69-0.55,0.33C75.93,82.75,76.47,82.43,76.7,82.78
					c0.35,0.52,1.19,0.02,0.84-0.5c-0.39-0.59-1.15-0.83-1.78-0.45c-0.61,0.36-0.81,1.17-0.45,1.78c0.35,0.6,1.14,0.8,1.75,0.48
					c0.66-0.36,0.83-1.17,0.49-1.8C77.25,81.72,76.41,82.22,76.7,82.78z"/>
			</g>
		</g>
		<g>
			<path class="st3" d="M73.25,59c0.26,0.44,0.12,1.02-0.33,1.28c-0.44,0.26-1.02,0.12-1.28-0.33c-0.26-0.44-0.12-1.02,0.33-1.28
				C72.41,58.41,72.98,58.55,73.25,59z"/>
			<g>
				<path class="st3" d="M72.83,59.25c0.26,0.51-0.47,0.95-0.76,0.45C71.77,59.21,72.51,58.77,72.83,59.25
					c0.35,0.52,1.19,0.02,0.84-0.5c-0.43-0.64-1.26-0.91-1.95-0.5c-0.67,0.4-0.89,1.28-0.5,1.95c0.38,0.65,1.25,0.88,1.91,0.52
					c0.73-0.39,0.91-1.27,0.54-1.97C73.38,58.19,72.53,58.69,72.83,59.25z"/>
			</g>
		</g>
		<g>
			<path class="st3" d="M71.94,70.16c0.22,0.37,0.1,0.84-0.27,1.06c-0.37,0.22-0.84,0.1-1.06-0.27c-0.22-0.37-0.1-0.84,0.27-1.06
				C71.25,69.67,71.73,69.79,71.94,70.16z"/>
			<g>
				<path class="st3" d="M71.52,70.41c0.17,0.32-0.3,0.6-0.48,0.29C70.85,70.38,71.32,70.11,71.52,70.41
					c0.35,0.52,1.19,0.02,0.84-0.5c-0.38-0.57-1.12-0.8-1.73-0.44c-0.59,0.35-0.78,1.14-0.44,1.73c0.34,0.58,1.11,0.78,1.69,0.46
					c0.64-0.35,0.8-1.13,0.48-1.75C72.07,69.35,71.23,69.85,71.52,70.41z"/>
			</g>
		</g>
	</g>
</g>
<g>
	<g>
		<path class="st4" d="M128.55,58.17c0,0,1.31-1.27,2.39,1.22c1.08,2.49,2.7,8.98,1.01,9.25c-1.69,0.27-2.97-5.2-2.97-5.2
			S127.94,58.74,128.55,58.17z"/>
		<g>
			<path class="st5" d="M141.3,48.66c-0.75,4.36-3.3,10.68-8.76,9.61c-1.03-0.2-0.91-1.32,0.15-1.11c4.36,0.85,6.31-5.43,6.88-8.74
				C139.71,47.67,141.43,47.91,141.3,48.66L141.3,48.66z"/>
		</g>
		<g>
			<path class="st5" d="M138.45,43.81c0.26,5.16-0.64,13.28-6.76,14.58c-0.84,0.18-1.84-0.95-0.73-1.19
				c5.37-1.15,5.99-9.14,5.78-13.28C136.69,43.01,138.41,43.03,138.45,43.81L138.45,43.81z"/>
		</g>
		<g>
			<path class="st5" d="M134.19,42.1c1.51,5.42,2.39,14.49-4.22,16.78c-0.62,0.22-2.08-0.58-1.12-0.91
				c6.09-2.11,5.01-10.9,3.64-15.82C132.28,41.4,134.01,41.44,134.19,42.1L134.19,42.1z"/>
		</g>
		<path class="st4" d="M102.43,60.25c0,0,1.31-1.27,2.39,1.22c1.08,2.49,2.7,8.98,1.01,9.25c-1.69,0.27-2.97-5.2-2.97-5.2
			S101.81,60.82,102.43,60.25z"/>
		<g>
			<path class="st5" d="M115.18,50.74c-0.75,4.36-3.3,10.68-8.76,9.61c-1.03-0.2-0.91-1.32,0.15-1.11c4.36,0.85,6.32-5.43,6.88-8.74
				C113.59,49.75,115.31,49.99,115.18,50.74L115.18,50.74z"/>
		</g>
		<g>
			<path class="st5" d="M112.32,45.89c0.26,5.16-0.64,13.28-6.76,14.58c-0.84,0.18-1.84-0.95-0.73-1.19
				c5.37-1.15,5.99-9.14,5.77-13.28C110.57,45.09,112.28,45.1,112.32,45.89L112.32,45.89z"/>
		</g>
		<g>
			<path class="st5" d="M108.07,44.18c1.51,5.42,2.39,14.49-4.22,16.78c-0.62,0.22-2.08-0.58-1.12-0.91
				c6.09-2.11,5.01-10.9,3.64-15.82C106.16,43.48,107.88,43.52,108.07,44.18L108.07,44.18z"/>
		</g>
	</g>
	<g>
		<g>
			<path class="st5" d="M118.59,100.65c1.33,0.25,2.66,0.55,3.98,0.88c1.03,0.26,2.07,0.54,3.06,0.94c0.38,0.15,1.46,0.49,1.52,1
				c0.02,0.14,0.21-0.15-0.14,0.1c-0.13,0.09-0.34,0.13-0.49,0.17c-0.56,0.17-1.15,0.26-1.73,0.34c-1.19,0.16-2.39,0.23-3.59,0.27
				c-1.53,0.06-3.06,0.07-4.59,0.03c-0.2-0.01-0.58,0.58-0.49,0.58c2,0.05,4.01,0.02,6.01-0.1c1.38-0.09,4.62,0.02,5.45-1.47
				c0.92-1.65-7.35-3.11-8.48-3.33C118.89,100.04,118.47,100.63,118.59,100.65L118.59,100.65z"/>
		</g>
		<g>
			<path class="st5" d="M149.61,84.22c1.33,0.25,2.66,0.55,3.98,0.88c1.03,0.26,2.07,0.54,3.06,0.94c0.38,0.15,1.46,0.49,1.52,1
				c0.02,0.14,0.21-0.15-0.14,0.1c-0.13,0.09-0.34,0.13-0.49,0.17c-0.56,0.17-1.15,0.26-1.73,0.34c-1.19,0.16-2.39,0.23-3.59,0.27
				c-1.53,0.06-3.06,0.07-4.59,0.03c-0.2-0.01-0.58,0.58-0.49,0.58c2,0.05,4.01,0.02,6.01-0.1c1.38-0.09,4.62,0.02,5.45-1.47
				c0.92-1.65-7.35-3.11-8.48-3.33C149.92,83.6,149.5,84.19,149.61,84.22L149.61,84.22z"/>
		</g>
	</g>
</g>
</svg>
