<?xml version="1.0" encoding="utf-8"?>
<!-- Generator: Adobe Illustrator 25.4.1, SVG Export Plug-In . SVG Version: 6.00 Build 0)  -->
<svg version="1.1" id="Ebene_1" xmlns="http://www.w3.org/2000/svg" xmlns:xlink="http://www.w3.org/1999/xlink" x="0px" y="0px"
	 viewBox="0 0 200 200" style="enable-background:new 0 0 200 200;" xml:space="preserve">
<style type="text/css">
	.st0{fill:#BA7C2A;}
	.st1{fill:#AC7125;}
	.st2{fill:#C69461;}
	.st3{fill:#DAA86F;}
	.st4{fill:#020203;}
	.st5{fill:#FFFFFF;}
</style>
<g>
	<g>
		<path class="st0" d="M151.48,22.1c0,0-26.63-20.92-50.25-2.57C77.61,37.89,64.9,70.09,49.17,89.24
			c-15.73,19.15-28.84,55.74,5.84,79.85c34.68,24.1,100.54,24.03,110.19-41.03C174.84,63,173.88,44.1,151.48,22.1z"/>
		<g>
			<path class="st0" d="M151.49,21.88c-2.61-2.05-5.59-3.72-8.57-5.17c-6.31-3.08-13.26-5.09-20.31-5.12
				c-4.22-0.01-8.43,0.72-12.37,2.22c-4.75,1.81-8.84,4.71-12.66,8.03c-8.77,7.6-15.86,16.92-22.26,26.55
				c-6.19,9.32-11.74,19.05-17.85,28.42c-2.74,4.2-5.62,8.31-8.8,12.2c-2.12,2.6-4.07,5.35-5.83,8.21c-3.81,6.19-6.79,12.94-8.54,20
				c-1.8,7.29-2.21,14.96-0.62,22.33c1.73,8.06,5.87,15.34,11.48,21.34c5.65,6.04,12.64,10.78,20.03,14.41
				c6.59,3.24,13.61,5.62,20.79,7.12c7.29,1.52,14.79,2.14,22.23,1.67c7.35-0.47,14.66-2.01,21.47-4.85
				c6.88-2.87,13.17-7.05,18.38-12.39c5.82-5.96,10.15-13.21,13.09-20.98c3.95-10.41,5.1-21.56,6.59-32.52
				c1.39-10.28,2.66-20.6,3.3-30.96c0.47-7.56,0.61-15.2-0.24-22.74c-0.66-5.83-1.96-11.59-4.27-17c-2.19-5.15-5.27-9.86-8.86-14.14
				c-1.91-2.28-3.95-4.44-6.07-6.53c-0.45-0.44-0.7-0.2-0.25,0.25c4.18,4.11,8.06,8.55,11.13,13.57c2.88,4.72,4.93,9.9,6.18,15.29
				c1.49,6.41,1.94,13.02,1.94,19.59c0.01,8.75-0.75,17.49-1.7,26.18c-0.61,5.52-1.31,11.04-2.06,16.54
				c-0.81,5.91-1.53,11.86-2.61,17.73c-1.67,9.04-4.71,17.89-9.63,25.69c-8.09,12.81-20.96,21.46-35.66,24.84
				c-14.27,3.28-29.46,1.93-43.29-2.64c-15.18-5.03-30.53-14.45-37.81-29.21c-6.81-13.8-4.89-29.82,1.3-43.46
				c2.86-6.29,6.61-12.01,10.93-17.37C56.55,80.94,61.79,72,67.17,63.24c5.9-9.62,11.9-19.23,19.04-27.98
				c3.59-4.4,7.47-8.57,11.74-12.32c3.86-3.39,8-6.41,12.83-8.27c12.9-4.98,27.4-1.13,38.6,6.21c0.54,0.35,1.07,0.72,1.59,1.09
				c0.28,0.2,0.3,0.21,0.48,0.36C152.04,22.78,151.84,22.15,151.49,21.88z"/>
		</g>
	</g>
	<g>
		<path class="st1" d="M58.71,105.45c0,0-18.63,0.35-10.41,21.28C56.52,147.66,78.57,99.18,58.71,105.45z"/>
		<path class="st1" d="M153.22,44.55l-1.07-0.74c-27.64-13.15-2.81,40.3,10.93,25.32C176.82,54.15,153.22,44.55,153.22,44.55z"/>
		<path class="st1" d="M126.53,136.84c0,0-9.15-5.14-12.35,5.08C110.98,152.14,135.22,145.85,126.53,136.84z"/>
	</g>
</g>
<g>
	<path class="st2" d="M89.82,167.34c0,0,7.4,13.93,0.01,20.87c-7.39,6.93-21.32,1.59-26.13-0.01c-0.46-0.15-1.52-0.87-3.13-0.38
		c-0.74,0.23-1.56,0.27-2.1,0.85c-0.29,0.31-1.45,0.47-1.17-0.68c0.53-2.16,5.53-2.77,6.82-3.54c1.29-0.77,7.58-5.54,10.57-10.23
		C77.67,169.52,89.82,167.34,89.82,167.34z"/>
	<path class="st3" d="M71.37,161.2c-3.53,1.77-5.91,5.36-6.1,9.36c-0.16,3.5,1.31,7.56,7.83,9.8c13.04,4.49,22.47-9.33,22.68-5.94
		c0.21,3.4-0.15,19.25,2.92,21.45c1.51,1.09,2.56,0.01,1.61-0.87c-1.18-1.09-1.97-0.45-0.84-6.44c1.79-9.51,13.01-23.3-1.15-27.64
		C84.55,156.72,75.95,158.9,71.37,161.2z"/>
</g>
<g>
	<path class="st4" d="M95.41,100.98c0,0-0.81-1.27-2.16,0.52c-1.35,1.79-3.88,6.69-2.58,7.23c1.3,0.54,3.38-3.6,3.38-3.6
		S95.79,101.56,95.41,100.98z"/>
	<g>
		<path class="st5" d="M86.99,90.91c-0.23,3.64,0.6,9.2,5.19,9.39c0.87,0.04,0.98-0.88,0.09-0.92c-3.66-0.15-4.03-5.57-3.85-8.33
			C88.46,90.43,87.03,90.29,86.99,90.91L86.99,90.91z"/>
	</g>
	<g>
		<path class="st5" d="M90.21,87.57c-1.2,4.09-2.02,10.78,2.63,13c0.64,0.3,1.66-0.41,0.81-0.82c-4.09-1.95-3.06-8.48-2.09-11.77
			C91.77,87.26,90.39,86.94,90.21,87.57L90.21,87.57z"/>
	</g>
	<g>
		<path class="st5" d="M93.95,87.01c-2.25,4.06-4.69,11.18,0.18,14.28c0.46,0.29,1.78-0.06,1.07-0.51c-4.48-2.86-1.94-9.7,0.1-13.39
			C95.62,86.81,94.23,86.51,93.95,87.01L93.95,87.01z"/>
	</g>
	<path class="st4" d="M115.98,107.65c0,0-0.81-1.27-2.16,0.52c-1.35,1.79-3.88,6.69-2.58,7.23c1.3,0.54,3.38-3.6,3.38-3.6
		S116.36,108.22,115.98,107.65z"/>
	<g>
		<path class="st5" d="M107.56,97.57c-0.23,3.64,0.6,9.2,5.19,9.39c0.87,0.04,0.98-0.88,0.09-0.92c-3.66-0.15-4.03-5.57-3.85-8.33
			C109.03,97.09,107.6,96.95,107.56,97.57L107.56,97.57z"/>
	</g>
	<g>
		<path class="st5" d="M110.78,94.23c-1.2,4.09-2.02,10.78,2.63,13c0.64,0.3,1.66-0.41,0.81-0.82c-4.09-1.95-3.06-8.48-2.09-11.77
			C112.34,93.92,110.96,93.61,110.78,94.23L110.78,94.23z"/>
	</g>
	<g>
		<path class="st5" d="M114.52,93.67c-2.25,4.06-4.69,11.18,0.18,14.28c0.46,0.29,1.78-0.06,1.07-0.51
			c-4.48-2.86-1.94-9.7,0.1-13.39C116.19,93.48,114.8,93.18,114.52,93.67L114.52,93.67z"/>
	</g>
	<g>
		<path class="st5" d="M74.43,134.53c0.5,1.07,0.96,2.16,1.38,3.26c0.16,0.43,1.48,3.46,0.85,3.81c-0.61,0.34-3.12-3.1-3.48-3.56
			c-0.77-1-1.52-2.02-2.23-3.07c-0.09-0.14-0.67-0.08-0.63-0.02c0.93,1.37,1.91,2.71,2.95,3.99c0.72,0.88,2.2,3.12,3.61,2.93
			c1.57-0.22-1.41-6.41-1.84-7.32C74.99,134.41,74.39,134.44,74.43,134.53L74.43,134.53z"/>
	</g>
	<g>
		<path class="st5" d="M94.46,158.78c-0.86,0.38-7.3,3.26-6.24,4.23c0.38,0.35,1.29,0.29,1.76,0.29c1.01-0.01,2.03-0.16,3.03-0.33
			c1.61-0.27,3.21-0.62,4.79-1.03c0.13-0.03-0.41-0.18-0.55-0.14c-1,0.26-8.64,2.03-8.57,0.89c0.02-0.43,0.85-0.89,1.16-1.1
			c0.67-0.45,1.37-0.83,2.08-1.2c1.01-0.53,2.05-1.02,3.09-1.48C95.15,158.85,94.59,158.72,94.46,158.78L94.46,158.78z"/>
	</g>
</g>
</svg>
