<?xml version="1.0" encoding="utf-8"?>
<!-- Generator: Adobe Illustrator 25.4.1, SVG Export Plug-In . SVG Version: 6.00 Build 0)  -->
<svg version="1.1" id="Ebene_1" xmlns="http://www.w3.org/2000/svg" xmlns:xlink="http://www.w3.org/1999/xlink" x="0px" y="0px"
	 viewBox="0 0 200 200" style="enable-background:new 0 0 200 200;" xml:space="preserve">
<style type="text/css">
	.st0{fill:#DAA86F;}
	.st1{fill:#99B06A;}
	.st2{fill:#EE7242;}
	.st3{fill:#BE592B;}
	.st4{fill:#020203;}
	.st5{fill:#FFFFFF;}
</style>
<g>
	<path class="st0" d="M85.4,151.87c0,0,11.89,8.98,11.06,16.03c-0.83,7.05-23.98,16.41-26.44,26.83c-0.68,2.86-3.65,1.63-2.81-0.65
		c0.23-0.62,0.45-1.89,2.76-5.65c5.22-8.51,17.59-19.98,13.66-20.76C68.16,164.62,76.1,150.95,85.4,151.87z"/>
	<g>
		<path class="st0" d="M122.05,144.48c0,0,11.89,8.98,11.06,16.03c-0.83,7.05-23.98,16.41-26.44,26.83
			c-0.68,2.86-3.65,1.63-2.81-0.65c0.23-0.62,0.45-1.89,2.76-5.65c5.22-8.51,17.59-19.98,13.66-20.76
			C104.81,157.22,112.75,143.56,122.05,144.48z"/>
	</g>
</g>
<g>
	<g>
		<path class="st1" d="M118.24,3.61c-3.33,2.1-6.33,4.94-8.9,7.89c-5.07,5.84-8.56,13.2-8.22,21.07c0.26,5.94,2.65,11.47,5.76,16.45
			c0.08,0.13,0.81,1.36,1.01,1.24c0.19-0.12-0.63-1.4-0.67-1.45c-4.82-7.73-5.79-17.11-2.11-25.49c2.52-5.75,6.76-10.7,11.59-14.65
			c1.02-0.84,2.08-1.67,3.2-2.37C120.16,6.14,118.49,3.45,118.24,3.61L118.24,3.61z"/>
	</g>
	<g>
		<g>
			<path class="st2" d="M68.75,43.11c-3.12,3.2-7.71,4.49-12,3.23C45.43,43.04,23.9,42.18,14.2,78.03
				c-10.02,37.04,11.37,53.51,23.02,59.53c3.51,1.82,5.95,5.24,6.39,9.17c0.45,4,2.62,8.83,9.87,11.03
				c8.85,2.69,17.83,1.85,23.45-1.37c3.37-1.93,7.47-1.95,10.96-0.25c3.03,1.47,7.75,2.52,15.12,2.2c8.87-0.38,13.9-1.91,16.76-3.52
				c2.98-1.68,6.54-1.88,9.76-0.7c4.53,1.67,11.23,1.96,18.7-4.92c1.55-1.43,3.42-2.44,5.47-2.92c9.39-2.2,36.06-10.99,34.61-39.52
				c-1.76-34.59-11.43-65.37-40.45-67.71c0,0-3.64-0.22-6.52,0.89c-3.2,1.24-6.77,1-9.83-0.56c-4.05-2.06-9.58-3.34-15.25,0.04
				c-3.38,2.02-7.57,2.15-11.14,0.48C96.41,35.82,80.49,31.08,68.75,43.11z"/>
			<g>
				<path class="st2" d="M67.82,43.52c-1.19,1.18-2.5,2.11-4.14,2.51c-1.43,0.35-2.94,0.41-4.4,0.2c-1.32-0.19-2.6-0.65-3.9-0.95
					c-2.18-0.5-4.41-0.8-6.65-0.88c-5.51-0.18-10.85,1.23-15.67,3.88c-6.42,3.54-11.09,9.33-14.4,15.78
					c-2.34,4.57-4.07,9.45-5.4,14.4c-1.44,5.33-2.4,10.82-2.57,16.35c-0.26,8.2,1.31,16.45,5.21,23.71
					c3.02,5.64,7.33,10.5,12.39,14.4c2.04,1.57,4.2,2.99,6.45,4.24c1.51,0.84,3.03,1.58,4.3,2.78c1.78,1.68,3.02,3.89,3.49,6.29
					c0.35,1.79,0.52,3.47,1.32,5.14c0.86,1.8,2.19,3.32,3.8,4.49c2.21,1.59,4.84,2.42,7.47,3.03c3.05,0.7,6.19,1.02,9.32,0.91
					c2.6-0.09,5.2-0.49,7.69-1.25c1.08-0.33,2.14-0.74,3.17-1.2c1.36-0.61,2.59-1.44,4.07-1.76c2.86-0.61,5.49,0.08,8.1,1.23
					c1.65,0.73,3.41,1.19,5.19,1.5c5.53,0.96,11.4,0.63,16.92-0.22c3.55-0.55,7.07-1.47,10.25-3.16c2.83-1.5,5.99-1.34,8.95-0.32
					c1.69,0.58,3.44,0.93,5.22,0.94c4.45,0.03,8.81-1.94,12.37-4.49c1.25-0.89,2.32-1.97,3.53-2.91c1.09-0.85,2.22-1.27,3.54-1.59
					c0.99-0.24,1.98-0.51,2.95-0.8c2.59-0.76,5.13-1.69,7.6-2.77c6.02-2.62,11.77-6.13,16.29-10.95c5.34-5.69,8.41-12.99,8.95-20.76
					c0.35-5.04-0.22-10.21-0.73-15.22c-0.5-4.89-1.2-9.75-2.19-14.56c-1.78-8.64-4.46-17.28-9.08-24.84
					c-4.03-6.62-9.68-12.23-16.87-15.32c-3.63-1.56-7.64-2.57-11.59-2.8c-1.67-0.1-3.41,0.06-5.04,0.43
					c-1.46,0.33-2.8,0.98-4.3,1.16c-1.49,0.19-3.01,0.08-4.46-0.3c-1.37-0.35-2.56-1.03-3.84-1.57c-1.16-0.5-2.38-0.89-3.62-1.13
					c-2.59-0.52-5.23-0.33-7.73,0.51c-1.21,0.41-2.38,0.95-3.5,1.56c-1.57,0.87-3.13,1.33-4.94,1.35c-2.56,0.03-4.7-0.94-6.99-1.92
					c-7.68-3.28-16.44-5-24.58-2.44C75.26,37.65,71.14,40.15,67.82,43.52c-0.1,0.1,0.68-0.15,0.74-0.17
					c0.37-0.16,0.84-0.34,1.14-0.64c1.96-1.98,4.2-3.77,6.76-4.91c2.23-0.99,4.68-1.53,7.1-1.76c4.23-0.4,8.52,0.18,12.6,1.31
					c1.9,0.52,3.75,1.17,5.57,1.92c1.91,0.78,3.72,1.77,5.79,2.1c2.52,0.4,5.02-0.07,7.35-1.08c1.36-0.6,2.59-1.48,4.02-1.92
					c1.47-0.46,3.03-0.62,4.56-0.55c2.68,0.13,5.06,1.05,7.46,2.18c2.47,1.15,5.24,1.49,7.91,0.91c1.25-0.27,2.41-0.81,3.66-1.07
					c1.15-0.24,2.34-0.33,3.52-0.35c1.65-0.02,3.31,0.24,4.92,0.53c7.56,1.37,14.34,5.21,19.49,10.91c5.48,6.07,9,13.69,11.43,21.43
					c2.82,9,4.27,18.41,5.07,27.79c0.4,4.74,0.83,9.54,0.22,14.28c-0.52,4-1.71,7.9-3.63,11.46c-3.26,6.05-8.45,10.87-14.36,14.29
					c-4.31,2.49-9.04,4.26-13.86,5.46c-1.98,0.49-3.84,1.16-5.59,2.21c-2.53,1.52-4.45,3.82-7.09,5.22
					c-3.65,1.93-8.04,1.99-11.89,0.66c-2.43-0.84-4.91-1.1-7.43-0.45c-1.87,0.48-3.44,1.52-5.21,2.22
					c-4.29,1.72-9.15,2.13-13.72,2.35c-4.72,0.22-9.75,0.11-14.22-1.62c-2.24-0.87-4.2-1.81-6.67-1.8
					c-2.52,0.01-4.85,0.89-7.04,2.08c-4.89,2.66-11.18,2.79-16.56,2c-4.94-0.73-10.38-2.25-13.3-6.64
					c-0.96-1.45-1.57-3.11-1.86-4.82c-0.38-2.24-0.83-4.26-2.16-6.16c-1.99-2.84-5.07-4.06-7.91-5.81
					c-11.06-6.82-19.04-17.62-21.31-30.53c-1.75-9.95-0.26-20.21,2.66-29.79c2.51-8.23,6.25-16.54,12.56-22.57
					c4.15-3.97,9.15-6.28,14.88-6.76c2.32-0.19,4.66-0.11,6.97,0.21c2.31,0.31,4.49,1.08,6.77,1.48c4.49,0.78,9.38-1.24,12.55-4.41
					c0.1-0.1-0.68,0.15-0.74,0.17C68.57,43.04,68.11,43.22,67.82,43.52z"/>
			</g>
		</g>
		<g>
			<g>
				<path class="st3" d="M49.7,62.1c-3.63,3.76-6.44,8.56-8.66,13.24c-5.14,10.82-6.91,22.98-4.95,34.8
					c1.57,9.48,5.42,18.41,10.46,26.54c0.27,0.43,1.44-0.01,1.13-0.52c-8.12-13.09-12.78-28.34-10.59-43.79
					c1.31-9.25,4.9-18.17,10.29-25.79c1.02-1.44,2.1-2.89,3.34-4.17C51.23,61.87,50.05,61.74,49.7,62.1L49.7,62.1z"/>
			</g>
			<g>
				<path class="st3" d="M81.11,125.64c-0.25,2.87-0.3,5.77-0.18,8.65c0.09,2.13,0.28,4.29,0.81,6.36c0.38,1.48,0.97,3.21,2.33,4.08
					c0.24,0.15,1.07-0.26,0.97-0.32c-1.39-0.88-1.95-2.69-2.32-4.2c-0.51-2.09-0.69-4.25-0.77-6.39c-0.11-2.8-0.06-5.63,0.19-8.43
					C82.15,125.28,81.14,125.36,81.11,125.64L81.11,125.64z"/>
			</g>
			<g>
				<path class="st3" d="M140.36,51.39c1.34,1,2.59,2.22,3.8,3.44c3.09,3.13,5.82,6.62,8.17,10.35c3.37,5.35,5.92,11.2,7.53,17.32
					c2.06,7.83,2.55,16,1.71,24.05c-1.13,10.72-4.54,21.09-9.18,30.77c-0.69,1.44-1.41,2.87-2.15,4.29
					c-0.3,0.57,0.93,0.51,1.16,0.09c5.2-9.92,9.24-20.56,10.95-31.67c1.28-8.33,1.19-16.88-0.59-25.12
					c-1.39-6.41-3.79-12.57-7.07-18.24c-2.38-4.11-5.23-7.96-8.48-11.41c-1.01-1.07-2.06-2.11-3.16-3.09
					c-0.49-0.44-1.04-1.05-1.63-1.36c-0.03-0.01-0.05-0.04-0.07-0.05C140.94,50.45,139.83,50.99,140.36,51.39L140.36,51.39z"/>
			</g>
			<g>
				<path class="st3" d="M122.31,124.72c0.24,2.72,0.29,5.48,0.2,8.21c-0.08,2.13-0.24,4.29-0.72,6.38
					c-0.35,1.5-0.89,3.45-2.28,4.33c-0.41,0.26,0.6,0.13,0.77,0.02c1.36-0.86,1.97-2.46,2.37-3.95c0.56-2.07,0.76-4.24,0.86-6.37
					c0.14-2.95,0.09-5.93-0.17-8.87C123.32,124.3,122.29,124.47,122.31,124.72L122.31,124.72z"/>
			</g>
		</g>
	</g>
</g>
<g>
	<g>
		<path class="st4" d="M105.55,105.98c0,0,1.18-0.88,1.79,1.23c0.61,2.11,1.24,7.48-0.15,7.52c-1.38,0.04-1.85-4.47-1.85-4.47
			S105,106.38,105.55,105.98z"/>
		<g>
			<path class="st5" d="M116.76,99.67c-1.05,3.41-3.74,8.22-8.01,6.8c-0.81-0.27-0.59-1.15,0.23-0.87c3.4,1.13,5.62-3.7,6.42-6.29
				C115.58,98.72,116.93,99.09,116.76,99.67L116.76,99.67z"/>
		</g>
		<g>
			<path class="st5" d="M114.96,95.5c-0.32,4.16-1.88,10.57-6.92,10.99c-0.69,0.06-1.37-0.95-0.46-1.03c4.42-0.37,5.74-6.71,6-10.05
				C113.64,94.67,115.01,94.86,114.96,95.5L114.96,95.5z"/>
		</g>
		<g>
			<path class="st5" d="M111.73,93.69c0.65,4.5,0.42,11.86-5.11,13.02c-0.52,0.11-1.61-0.68-0.8-0.84c5.09-1.06,5.14-8.22,4.55-12.3
				C110.27,92.93,111.65,93.14,111.73,93.69L111.73,93.69z"/>
		</g>
		<path class="st4" d="M84.4,104.96c0,0,1.18-0.88,1.79,1.23c0.61,2.11,1.24,7.48-0.15,7.52c-1.38,0.04-1.85-4.47-1.85-4.47
			S83.85,105.35,84.4,104.96z"/>
		<g>
			<path class="st5" d="M95.6,98.65c-1.05,3.41-3.74,8.22-8.01,6.8c-0.81-0.27-0.59-1.15,0.23-0.87c3.4,1.13,5.62-3.7,6.42-6.29
				C94.43,97.69,95.78,98.06,95.6,98.65L95.6,98.65z"/>
		</g>
		<g>
			<path class="st5" d="M93.81,94.47c-0.32,4.16-1.88,10.57-6.92,10.99c-0.69,0.06-1.37-0.95-0.46-1.03c4.42-0.37,5.74-6.71,6-10.05
				C92.49,93.64,93.86,93.84,93.81,94.47L93.81,94.47z"/>
		</g>
		<g>
			<path class="st5" d="M90.58,92.66c0.65,4.5,0.42,11.86-5.11,13.02c-0.52,0.11-1.61-0.68-0.8-0.84c5.09-1.06,5.14-8.22,4.55-12.3
				C89.12,91.9,90.5,92.11,90.58,92.66L90.58,92.66z"/>
		</g>
	</g>
	<g>
		<g>
			<path class="st5" d="M135.43,136.95c0.65-0.84,1.33-1.67,2.04-2.47c0.55-0.63,1.12-1.25,1.74-1.81c0.35-0.31,0.95-1.04,1.08-0.28
				c0.11,0.67-0.27,1.52-0.49,2.14c-0.32,0.88-0.69,1.74-1.09,2.59c-0.52,1.12-1.07,2.23-1.67,3.32c-0.03,0.06,0.52,0.03,0.6-0.11
				c0.54-0.99,4.46-8.02,2.94-8.57c-1.01-0.37-2.52,1.53-3.04,2.09c-0.96,1.03-1.86,2.11-2.72,3.23
				C134.8,137.1,135.32,137.09,135.43,136.95L135.43,136.95z"/>
		</g>
		<g>
			<path class="st5" d="M68.91,142.5c0.38-0.86,3.16-7.1,1.64-7.19c-1.33-0.07-2.7,2.05-3.38,2.91c-1.03,1.3-1.98,2.66-2.88,4.05
				c-0.03,0.04,0.51,0.03,0.6-0.11c0.56-0.87,4.75-7.13,5.48-6.51c0.29,0.25-0.03,1.29-0.1,1.56c-0.19,0.79-0.46,1.57-0.74,2.34
				c-0.37,1.03-0.78,2.06-1.22,3.06C68.27,142.68,68.84,142.65,68.91,142.5L68.91,142.5z"/>
		</g>
	</g>
</g>
</svg>
